<?xml version="1.0" encoding="UTF-8" standalone="no"?>
<svg width="1440px" height="470px" viewBox="0 0 1440 470" version="1.1" xmlns="http://www.w3.org/2000/svg" xmlns:xlink="http://www.w3.org/1999/xlink">
    <!-- Generator: Sketch 39.1 (31720) - http://www.bohemiancoding.com/sketch -->
    <title>Speckles mono</title>
    <desc>Created with Sketch.</desc>
    <defs></defs>
    <g id="Landing-page" stroke="none" stroke-width="1" fill="none" fill-rule="evenodd" opacity="0.1">
        <g id="Draft1-v4">
            <g id="Speckles-mono" transform="translate(1.000000, -23.000000)">
                <ellipse id="Oval" stroke="#0086E6" stroke-width="1.7145" cx="773.383421" cy="358.054378" rx="5.97854654" ry="5.99057668"></ellipse>
                <ellipse id="Oval" stroke="#0086E6" stroke-width="1.7145" cx="382.96823" cy="352.819722" rx="5.97854654" ry="5.99057668"></ellipse>
                <ellipse id="Oval-Copy-8" stroke="#0086E6" stroke-width="1.7145" cx="414.382532" cy="122.397612" rx="10.0306942" ry="10.0508782"></ellipse>
                <ellipse id="Oval" stroke="#0086E6" stroke-width="3.4291" cx="724.351066" cy="201.437713" rx="10.9082253" ry="10.930175"></ellipse>
                <ellipse id="Oval-Copy-3" stroke="#0086E6" stroke-width="3.4291" cx="272.578342" cy="453.176406" rx="10.9082253" ry="10.930175"></ellipse>
                <ellipse id="Oval" stroke="#0086E6" stroke-width="2.5" cx="513.698523" cy="374.136305" rx="5.97854654" ry="5.99057668"></ellipse>
                <ellipse id="Oval-Copy-21" stroke="#0086E6" stroke-width="2.5" cx="64.7741771" cy="362.055276" rx="4.0521477" ry="4.06030151"></ellipse>
                <ellipse id="Oval-Copy-9" stroke="#0086E6" stroke-width="3.4291" cx="1203.83286" cy="293.945351" rx="5.97854654" ry="5.99057668"></ellipse>
                <ellipse id="Oval-Copy-25" stroke="#0086E6" stroke-width="2" cx="1368.00579" cy="290.900124" rx="5.97854654" ry="5.99057668"></ellipse>
                <ellipse id="Oval-Copy" stroke="#0086E6" stroke-width="3.4291" cx="920.077187" cy="196.498114" rx="5.97854654" ry="5.99057668"></ellipse>
                <ellipse id="Oval-Copy-12" stroke="#0086E6" stroke-width="3.4291" cx="1411.58255" cy="380.226758" rx="5.97854654" ry="5.99057668"></ellipse>
                <path d="M1352.9054,476.758794 C1354.58385,476.758794 1355.94451,475.3954 1355.94451,473.713568 C1355.94451,472.031736 1354.58385,470.668342 1352.9054,470.668342 C1351.22694,470.668342 1349.86628,472.031736 1349.86628,473.713568 C1349.86628,475.3954 1351.22694,476.758794 1352.9054,476.758794 Z" id="Oval-Copy-24" stroke="#0086E6" stroke-width="2"></path>
                <path d="M1422.8309,431.080402 C1424.50936,431.080402 1425.87001,429.717008 1425.87001,428.035176 C1425.87001,426.353344 1424.50936,424.98995 1422.8309,424.98995 C1421.15245,424.98995 1419.79179,426.353344 1419.79179,428.035176 C1419.79179,429.717008 1421.15245,431.080402 1422.8309,431.080402 Z" id="Oval-Copy-32" stroke="#0086E6" stroke-width="2"></path>
                <ellipse id="Oval" stroke="#0086E6" stroke-width="2" cx="910.956469" cy="337.593592" rx="5.97854654" ry="5.99057668"></ellipse>
                <ellipse id="Oval-Copy-13" stroke="#0086E6" stroke-width="2" cx="992.49926" cy="186.505" rx="3.49926045" ry="3.50500011"></ellipse>
                <ellipse id="Oval-Copy-40" stroke="#0086E6" stroke-width="2" cx="1274.49926" cy="66.5050001" rx="3.49926045" ry="3.50500011"></ellipse>
                <ellipse id="Oval-Copy-30" stroke="#0086E6" stroke-width="2" cx="1411.68449" cy="316.376884" rx="3.04023938" ry="3.04522613"></ellipse>
                <ellipse id="Oval-Copy-26" stroke="#0086E6" stroke-width="2" cx="904.977922" cy="129.603015" rx="3.04023938" ry="3.04522613"></ellipse>
                <ellipse id="Oval" stroke="#0086E6" stroke-width="3.4291" cx="683.075902" cy="407.450361" rx="5.97854654" ry="5.99057668"></ellipse>
                <ellipse id="Oval" stroke="#0086E6" stroke-width="1.7145" cx="501.880811" cy="405.88862" rx="3.88081091" ry="3.88861995"></ellipse>
                <ellipse id="Oval-Copy-36" stroke="#0086E6" stroke-width="1.7145" cx="299.880811" cy="72.8886199" rx="3.88081091" ry="3.88861995"></ellipse>
                <ellipse id="Oval-Copy-37" stroke="#0086E6" stroke-width="1.7145" cx="351.880811" cy="104.88862" rx="3.88081091" ry="3.88861995"></ellipse>
                <ellipse id="Oval-Copy-23" stroke="#0086E6" stroke-width="1.7145" cx="11.9881159" cy="451.210228" rx="3.88081091" ry="3.88861995"></ellipse>
                <ellipse id="Oval-Copy-19" stroke="#0086E6" stroke-width="1.7145" cx="3.88081091" cy="140.597163" rx="3.88081091" ry="3.88861995"></ellipse>
                <ellipse id="Oval-Copy-22" stroke="#0086E6" stroke-width="1.7145" cx="23.1356603" cy="201.501685" rx="3.88081091" ry="3.88861995"></ellipse>
                <ellipse id="Oval-Copy-10" stroke="#0086E6" stroke-width="1.7145" cx="1191.88081" cy="324.88862" rx="3.88081091" ry="3.88861995"></ellipse>
                <ellipse id="Oval-Copy-41" stroke="#0086E6" stroke-width="1.7145" cx="1255.88081" cy="89.8886199" rx="3.88081091" ry="3.88861995"></ellipse>
                <ellipse id="Oval-Copy-31" stroke="#0086E6" stroke-width="1.7145" cx="1277.74111" cy="312.144901" rx="3.88081091" ry="3.88861995"></ellipse>
                <ellipse id="Oval-Copy-15" stroke="#0086E6" stroke-width="1.7145" cx="1070.16238" cy="326.527638" rx="5.06518463" ry="5.07537688"></ellipse>
                <ellipse id="Oval-Copy-28" stroke="#0086E6" stroke-width="1.7145" cx="1365.06635" cy="139.753769" rx="3.03911078" ry="3.04522613"></ellipse>
                <ellipse id="Oval-Copy-5" stroke="#0086E6" stroke-width="1.7145" cx="299.968028" cy="232.125628" rx="6.07822155" ry="6.09045226"></ellipse>
                <ellipse id="Oval" stroke="#0086E6" stroke-width="1.7145" cx="852.880811" cy="239.88862" rx="3.88081091" ry="3.88861995"></ellipse>
                <ellipse id="Oval-Copy-33" stroke="#0086E6" stroke-width="1.7145" cx="548.880811" cy="79.8886199" rx="3.88081091" ry="3.88861995"></ellipse>
                <ellipse id="Oval-Copy-14" stroke="#0086E6" stroke-width="2" cx="97.2857792" cy="304.19598" rx="5.06518463" ry="5.07537688"></ellipse>
                <ellipse id="Oval-Copy-4" stroke="#0086E6" stroke-width="1.7145" cx="966.623281" cy="372.034349" rx="3.88081091" ry="3.88861995"></ellipse>
                <path d="M719.350478,472.355129 C721.493791,472.355129 723.231289,470.614135 723.231289,468.466509 C723.231289,466.318884 721.493791,464.577889 719.350478,464.577889 C717.207166,464.577889 715.469667,466.318884 715.469667,468.466509 C715.469667,470.614135 717.207166,472.355129 719.350478,472.355129 Z" id="Oval-Copy-2" stroke="#0086E6" stroke-width="1.7145"></path>
                <path d="M229.880811,371.77724 C232.024124,371.77724 233.761622,370.036245 233.761622,367.88862 C233.761622,365.740994 232.024124,364 229.880811,364 C227.737498,364 226,365.740994 226,367.88862 C226,370.036245 227.737498,371.77724 229.880811,371.77724 Z" id="Oval-Copy-17" stroke="#0086E6" stroke-width="1.7145"></path>
                <path d="M113.880811,72.7772399 C116.024124,72.7772399 117.761622,71.0362454 117.761622,68.8886199 C117.761622,66.7409945 116.024124,65 113.880811,65 C111.737498,65 110,66.7409945 110,68.8886199 C110,71.0362454 111.737498,72.7772399 113.880811,72.7772399 Z" id="Oval-Copy-35" stroke="#0086E6" stroke-width="1.7145"></path>
                <path d="M730.162465,148.889447 C732.680147,148.889447 734.721131,146.844356 734.721131,144.321608 C734.721131,141.79886 732.680147,139.753769 730.162465,139.753769 C727.644783,139.753769 725.603799,141.79886 725.603799,144.321608 C725.603799,146.844356 727.644783,148.889447 730.162465,148.889447 Z" id="Oval-Copy-2" stroke="#0086E6" stroke-width="1.7145"></path>
                <path d="M204.201052,476.758794 C206.718734,476.758794 208.759718,474.713703 208.759718,472.190955 C208.759718,469.668207 206.718734,467.623116 204.201052,467.623116 C201.68337,467.623116 199.642386,469.668207 199.642386,472.190955 C199.642386,474.713703 201.68337,476.758794 204.201052,476.758794 Z" id="Oval-Copy-20" stroke="#0086E6" stroke-width="1.7145"></path>
                <ellipse id="Oval" stroke="#0086E6" stroke-width="3.4291" cx="624.390943" cy="248.407827" rx="8.39094251" ry="8.40782692"></ellipse>
                <ellipse id="Oval-Copy-38" stroke="#0086E6" stroke-width="3.4291" cx="1107.5" cy="44.5251527" rx="12.5" ry="12.5251527"></ellipse>
                <ellipse id="Oval-Copy-18" stroke="#0086E6" stroke-width="3" cx="29.8968024" cy="316.889498" rx="10.641953" ry="10.663367"></ellipse>
                <ellipse id="Oval-Copy-11" stroke="#0086E6" stroke-width="3.4291" cx="1314.68046" cy="168.291422" rx="8.39094251" ry="8.40782692"></ellipse>
                <ellipse id="Oval-Copy-7" stroke="#0086E6" stroke-width="3.4291" cx="132.390943" cy="156.407827" rx="8.39094251" ry="8.40782692"></ellipse>
                <ellipse id="Oval-Copy-34" stroke="#0086E6" stroke-width="3.4291" cx="587.390943" cy="44.799513" rx="8.39094251" ry="8.40782692"></ellipse>
                <ellipse id="Oval" stroke="#0086E6" stroke-width="2.2778" cx="838.58459" cy="467.102849" rx="5.55899941" ry="5.57018533"></ellipse>
                <ellipse id="Oval-Copy-29" stroke="#0086E6" stroke-width="2.2778" cx="1161.559" cy="101.570185" rx="5.55899941" ry="5.57018533"></ellipse>
                <ellipse id="Oval-Copy-39" stroke="#0086E6" stroke-width="2.2778" cx="1431.559" cy="36.5701853" rx="5.55899941" ry="5.57018533"></ellipse>
                <ellipse id="Oval" stroke="#0086E6" stroke-width="1.7143" cx="870.663695" cy="449.495371" rx="4.19547125" ry="4.20391346"></ellipse>
                <ellipse id="Oval-Copy-27" stroke="#0086E6" stroke-width="1.7143" cx="1094.628" cy="467.766728" rx="4.19547125" ry="4.20391346"></ellipse>
                <ellipse id="Oval" stroke="#0086E6" stroke-width="1.7143" cx="617.207003" cy="170.349642" rx="4.19547125" ry="4.20391346"></ellipse>
                <path d="M676.088374,220.231948 C678.405469,220.231948 680.283845,218.349791 680.283845,216.028034 C680.283845,213.706277 678.405469,211.824121 676.088374,211.824121 C673.771279,211.824121 671.892903,213.706277 671.892903,216.028034 C671.892903,218.349791 673.771279,220.231948 676.088374,220.231948 Z" id="Oval" stroke="#0086E6" stroke-width="2.8135"></path>
                <path d="M989.23303,120.754561 C991.550125,120.754561 993.428502,118.872404 993.428502,116.550647 C993.428502,114.22889 991.550125,112.346734 989.23303,112.346734 C986.915936,112.346734 985.037559,114.22889 985.037559,116.550647 C985.037559,118.872404 986.915936,120.754561 989.23303,120.754561 Z" id="Oval-Copy-16" stroke="#0086E6" stroke-width="1.5"></path>
                <ellipse id="Oval-Copy-6" stroke="#0086E6" stroke-width="2.8135" cx="226.132946" cy="266.781803" rx="4.19547125" ry="4.20391346"></ellipse>
                <ellipse id="Oval" stroke="#0086E6" stroke-width="3" cx="1035.70526" cy="430.992276" rx="5.24433907" ry="5.25489182"></ellipse>
                <ellipse id="Oval" stroke="#0086E6" stroke-width="1.7145" cx="795.304758" cy="296.25685" rx="5.97854654" ry="5.99057668"></ellipse>
                <path d="M990.394171,256.319672 L990.813718,259.892999 L991.233266,263.466325 L987.876889,262.100053 L984.520512,260.733781 L987.352455,258.526727 L990.394171,256.319672 L990.394171,256.319672 Z M991.652813,251.695368 C991.338152,251.695368 991.023492,251.800465 990.813718,252.010661 L985.569379,256.004379 L980.32504,259.998097 C979.381059,260.628684 979.590833,262.100053 980.639701,262.520445 L986.618247,265.042793 L992.596794,267.565141 C992.806567,267.670239 993.016341,267.670239 993.121228,267.670239 C993.960322,267.670239 994.694529,266.934554 994.589643,265.988673 L993.750548,259.472607 L992.911454,252.956542 C993.016341,252.220857 992.38702,251.695368 991.652813,251.695368 L991.652813,251.695368 L991.652813,251.695368 Z" id="Shape" fill="#0086E6"></path>
                <path d="M642.702699,462.421902 C641.653831,463.262685 639.975643,462.632098 639.765869,461.265826 L638.612114,453.278391 L637.45836,445.290955 C637.248586,443.924683 638.612114,442.873705 639.870756,443.399194 L647.317717,446.447031 L654.764679,449.494868 C656.02332,450.020358 656.33798,451.701923 655.184226,452.542706 L648.891019,457.587402 L642.702699,462.421902 L642.702699,462.421902 Z" id="Shape" stroke="#0086E6" stroke-width="1.7145"></path>
                <path d="M167.205312,226.545397 C166.399457,227.191379 165.110088,226.706893 164.948917,225.657172 L164.062476,219.520346 L163.176034,213.38352 C163.014863,212.333799 164.062476,211.526322 165.029502,211.930061 L170.751077,214.271745 L176.472652,216.613428 C177.439678,217.017167 177.681435,218.30913 176.794994,218.955112 L171.95986,222.831002 L167.205312,226.545397 L167.205312,226.545397 Z" id="Shape" stroke="#0086E6" stroke-width="1.7145" transform="translate(170.252154, 219.330603) rotate(39.000000) translate(-170.252154, -219.330603) "></path>
                <path d="M1331.65251,370.697905 C1330.29034,371.789828 1328.11088,370.970886 1327.83845,369.196511 L1326.34007,358.823241 L1324.84169,348.449972 C1324.56926,346.675597 1326.34007,345.310693 1327.97467,345.993145 L1337.64602,349.951366 L1347.31738,353.909587 C1348.95198,354.592039 1349.36063,356.775885 1347.86225,357.867808 L1339.68927,364.419347 L1331.65251,370.697905 L1331.65251,370.697905 Z" id="Shape-Copy-12" stroke="#0086E6" stroke-width="1.7145"></path>
                <path d="M1020.7058,185.246269 C1019.65693,186.087051 1017.97874,185.456464 1017.76897,184.090192 L1016.61521,176.102757 L1015.46146,168.115321 C1015.25168,166.749049 1016.61521,165.698071 1017.87385,166.22356 L1025.32081,169.271397 L1032.76778,172.319235 C1034.02642,172.844724 1034.34108,174.526289 1033.18732,175.367072 L1026.89412,180.411768 L1020.7058,185.246269 L1020.7058,185.246269 Z" id="Shape-Copy-23" stroke="#0086E6" stroke-width="1.7145"></path>
                <path d="M341.265842,445.160596 C340.216974,446.001379 338.538786,445.370792 338.329012,444.00452 L337.175258,436.017084 L336.021503,428.029649 C335.81173,426.663377 337.175258,425.612398 338.433899,426.137887 L345.880861,429.185725 L353.327822,432.233562 C354.586463,432.759051 354.901124,434.440617 353.747369,435.281399 L347.454162,440.326095 L341.265842,445.160596 L341.265842,445.160596 Z" id="Shape" stroke="#0086E6" stroke-width="1.7145"></path>
                <path d="M254.265842,66.6203508 C253.216974,67.4611335 251.538786,66.8305465 251.329012,65.4642746 L250.175258,57.4768391 L249.021503,49.4894035 C248.81173,48.1231316 250.175258,47.0721533 251.433899,47.5976424 L258.880861,50.6454797 L266.327822,53.693317 C267.586463,54.2188061 267.901124,55.9003715 266.747369,56.7411542 L260.454162,61.7858504 L254.265842,66.6203508 L254.265842,66.6203508 Z" id="Shape-Copy-27" stroke="#0086E6" stroke-width="1.7145"></path>
                <polygon id="Shape" stroke="#0086E6" stroke-width="2" stroke-linejoin="round" points="859.578866 140.768844 866.76623 153.320599 873.953594 165.666587 859.578866 165.666587 845.409492 165.666587 852.596856 153.320599"></polygon>
                <polygon id="Shape-Copy-3" stroke="#0086E6" stroke-width="3.4291" transform="translate(384.279314, 224.272992) rotate(27.000000) translate(-384.279314, -224.272992) " points="384.226871 217.914573 387.897908 224.325541 391.568946 230.631411 384.226871 230.631411 376.989683 230.631411 380.66072 224.325541"></polygon>
                <polygon id="Shape" stroke="#0086E6" stroke-width="3" points="504.679737 303.180905 511.812038 305.072666 518.944339 306.964427 513.7 312.114221 508.560548 317.369112 506.567699 310.22246"></polygon>
                <polygon id="Shape" stroke="#0086E6" stroke-width="3" points="714.679737 73.1809045 721.812038 75.0726656 728.944339 76.9644266 723.7 82.1142206 718.560548 87.3691124 716.567699 80.2224596"></polygon>
                <polygon id="Shape-Copy-21" stroke="#0086E6" stroke-width="3" transform="translate(50.587898, 122.414593) rotate(-315.000000) translate(-50.587898, -122.414593) " points="43.455597 115.320489 50.5878981 117.212251 57.7201992 119.104012 52.4758602 124.253806 47.3364079 129.508697 45.343559 122.362045"></polygon>
                <polygon id="Shape-Copy-18" stroke="#0086E6" stroke-width="3" transform="translate(127.728463, 414.827772) rotate(64.000000) translate(-127.728463, -414.827772) " points="120.596162 407.733668 127.728463 409.625429 134.860764 411.51719 129.616425 416.666984 124.476973 421.921876 122.484124 414.775223"></polygon>
                <polygon id="Shape-Copy-13" stroke="#0086E6" stroke-width="3.4291" points="1194.81408 222.818268 1201.94638 224.710029 1209.07868 226.60179 1203.83434 231.751584 1198.69489 237.006476 1196.70204 229.859823"></polygon>
                <polygon id="Shape-Copy-11" stroke="#0086E6" stroke-width="3.4291" points="1130.96905 445.291457 1138.10135 447.183218 1145.23365 449.074979 1139.98931 454.224773 1134.84986 459.479665 1132.85701 452.333012"></polygon>
                <polygon id="Shape" fill="#0086E6" points="576.605478 288.460027 574.92729 289.721201 569.578064 282.574548 564.543498 289.721201 562.760423 288.460027 567.690102 281.418472 559.404046 278.370635 560.138253 276.373776 568.319422 279.631809 568.319422 270.698492 570.626932 270.698492 570.522045 279.631809 578.912987 276.373776 579.647195 278.370635 571.151365 281.418472"></polygon>
                <polygon id="Shape-Copy-14" fill="#0086E6" points="1266.73982 208.09739 1265.06163 209.358565 1259.7124 202.211912 1254.67784 209.358565 1252.89476 208.09739 1257.82444 201.055835 1249.53839 198.007998 1250.27259 196.011139 1258.45376 199.269172 1258.45376 190.335856 1260.76127 190.335856 1260.65638 199.269172 1269.04733 196.011139 1269.78153 198.007998 1261.2857 201.055835"></polygon>
                <polygon id="Shape-Copy-6" fill="#0086E6" points="305.640507 384.402021 304.296358 385.412161 300.011883 379.688033 295.979437 385.412161 294.551278 384.402021 298.499716 378.762071 291.86298 376.320899 292.451046 374.72151 299.003772 377.331039 299.003772 370.175879 300.851976 370.175879 300.767967 377.331039 307.488711 374.72151 308.076777 376.320899 301.272023 378.762071"></polygon>
                <polygon id="Shape" fill="#0086E6" points="459.571035 373.167577 457.368412 373.377773 456.843978 364.444457 448.767696 367.70249 447.928602 365.705631 455.899997 362.552696 450.655658 355.511141 452.333847 354.249967 457.473299 361.39662 462.298091 353.934673 464.186053 355.195847 459.256374 362.657794 468.066864 364.549555 467.647317 366.651512 458.941714 364.549555"></polygon>
                <polygon id="Shape-Copy-20" fill="#0086E6" points="86.6424327 217.232904 84.4398103 217.4431 83.9153764 208.509784 75.8390943 211.767817 75 209.770958 82.9713954 206.618023 77.7270563 199.576468 79.4052448 198.315294 84.5446971 205.461946 89.369489 198 91.2574511 199.261174 86.3277724 206.72312 95.138262 208.614881 94.7187149 210.716838 86.013112 208.614881"></polygon>
                <polygon id="Shape-Copy-25" fill="#0086E6" points="488.162881 101.333787 486.631631 101.479914 486.267048 95.2695253 480.652464 97.5344904 480.069131 96.146286 485.610798 93.9543843 481.964964 89.0591371 483.131631 88.1823764 486.704548 93.150687 490.058714 87.9631862 491.371214 88.8399469 487.944131 94.0274477 494.069131 95.3425887 493.777464 96.8038565 487.725381 95.3425887"></polygon>
                <polygon id="Shape-Copy-15" fill="#0086E6" points="1139.64243 293.232904 1137.43981 293.4431 1136.91538 284.509784 1128.83909 287.767817 1128 285.770958 1135.9714 282.618023 1130.72706 275.576468 1132.40524 274.315294 1137.5447 281.461946 1142.36949 274 1144.25745 275.261174 1139.32777 282.72312 1148.13826 284.614881 1147.71871 286.716838 1139.01311 284.614881"></polygon>
                <polygon id="Shape-Copy-30" fill="#0086E6" points="1169.39414 58.7276326 1167.77169 58.8824631 1167.38539 52.3021645 1161.43638 54.7020381 1160.8183 53.2311478 1166.69005 50.9086894 1162.82706 45.7218658 1164.06322 44.7928824 1167.84895 50.0571214 1171.4029 44.5606366 1172.79358 45.4896199 1169.16236 50.9861047 1175.65219 52.3795797 1175.34315 53.9278853 1168.93058 52.3795797"></polygon>
                <polygon id="Shape" fill="#0086E6" points="701.201432 350.761534 699.523244 352.022708 694.174018 344.876056 689.139452 352.022708 687.356377 350.761534 692.286056 343.719979 684 340.672142 684.734207 338.675283 692.915376 341.933316 692.915376 333 695.222886 333 695.117999 341.933316 703.508941 338.675283 704.243149 340.672142 695.74732 343.719979"></polygon>
                <polygon id="Shape-Copy-28" fill="#0086E6" points="887.865127 67.7615344 886.186938 69.0227084 880.837712 61.8760555 875.803147 69.0227084 874.020072 67.7615344 878.94975 60.7199793 870.663695 57.6721421 871.397902 55.6752832 879.579071 58.9333161 879.579071 50 881.88658 50 881.781693 58.9333161 890.172636 55.6752832 890.906843 57.6721421 882.411014 60.7199793"></polygon>
                <polygon id="Shape-Copy-10" fill="#0086E6" points="342.8037 177.390072 340.206743 179.341709 331.928945 168.282434 324.138075 179.341709 321.378809 177.390072 329.007368 166.493434 316.184896 161.776979 317.321064 158.686887 329.981227 163.728615 329.981227 149.904523 333.552042 149.904523 333.389733 163.728615 346.374515 158.686887 347.510684 161.776979 334.363591 166.493434"></polygon>
                <polygon id="Shape-Copy-10" fill="#0086E6" points="1400.60314 192.616203 1398.00618 194.567839 1389.72838 183.508565 1381.93751 194.567839 1379.17825 192.616203 1386.80681 181.719565 1373.98434 177.003109 1375.1205 173.913018 1387.78067 178.954746 1387.78067 165.130653 1391.35148 165.130653 1391.18917 178.954746 1404.17396 173.913018 1405.31012 177.003109 1392.16303 181.719565"></polygon>
                <polygon id="Shape-Copy-17" fill="#0086E6" points="595.871502 119.715676 594.695708 120.599297 590.947863 115.592115 587.420479 120.599297 586.171198 119.715676 589.625094 114.782129 583.819609 112.646714 584.334019 111.247648 590.066017 113.530334 590.066017 107.271357 591.682734 107.271357 591.609247 113.530334 597.488219 111.247648 598.00263 112.646714 592.05017 114.782129"></polygon>
                <polygon id="Shape" fill="#0086E6" points="923.192767 292.520328 921.514579 293.781502 916.165353 286.634849 911.130788 293.781502 909.347712 292.520328 914.277391 285.478773 905.991335 282.430936 906.725543 280.434077 914.906712 283.69211 914.906712 274.758794 917.214221 274.758794 917.109334 283.69211 925.500277 280.434077 926.234484 282.430936 917.738655 285.478773"></polygon>
                <polygon id="Shape-Copy-22" fill="#0086E6" points="1363.01406 431.585655 1361.33588 432.846829 1355.98665 425.700176 1350.95208 432.846829 1349.16901 431.585655 1354.09869 424.5441 1345.81263 421.496263 1346.54684 419.499404 1354.72801 422.757437 1354.72801 413.824121 1357.03552 413.824121 1356.93063 422.757437 1365.32157 419.499404 1366.05578 421.496263 1357.55995 424.5441"></polygon>
                <path d="M821.878046,338.738145 C825.96863,335.795405 830.164101,341.680884 834.254686,338.738145 C838.34527,335.795405 834.149799,329.909926 838.240384,326.967187 C842.330968,324.024448 846.526439,329.909926 850.617024,326.967187 C854.707608,324.024448 850.512137,318.138969 854.602722,315.196229 C858.693306,312.25349 862.888777,318.138969 866.979362,315.196229" id="Shape" stroke="#0086E6" stroke-width="1.7145"></path>
                <path d="M1389.3894,266.667793 C1393.47998,263.725054 1397.67545,269.610532 1401.76604,266.667793 C1405.85662,263.725054 1401.66115,257.839575 1405.75173,254.896835 C1409.84232,251.954096 1414.03779,257.839575 1418.12837,254.896835 C1422.21896,251.954096 1418.02349,246.068617 1422.11407,243.125878 C1426.20466,240.183138 1430.40013,246.068617 1434.49071,243.125878" id="Shape-Copy-19" stroke="#0086E6" stroke-width="1.7145"></path>
                <path d="M762.347942,168.266121 C766.438526,165.323382 770.633998,171.208861 774.724582,168.266121 C778.815167,165.323382 774.619695,159.437903 778.71028,156.495164 C782.800864,153.552424 786.996335,159.437903 791.08692,156.495164 C795.177504,153.552424 790.982033,147.666946 795.072618,144.724206 C799.163202,141.781467 803.358673,147.666946 807.449258,144.724206" id="Shape-Copy-2" stroke="#0086E6" stroke-width="1.7145" transform="translate(784.898600, 156.495164) rotate(-80.000000) translate(-784.898600, -156.495164) "></path>
                <path d="M1040.77528,378.821609 C1045.49519,377.140044 1047.90758,383.971403 1052.62749,382.289838 C1057.34739,380.608272 1054.935,373.776913 1059.75979,372.095347 C1064.47969,370.413782 1066.89209,377.245141 1071.61199,375.563576 C1076.3319,373.882011 1073.9195,367.050651 1078.7443,365.369086 C1083.56909,363.68752 1085.8766,370.51888 1090.5965,368.837314" id="Shape" stroke="#0086E6" stroke-width="1.7145"></path>
                <path d="M1257.11011,461.325457 C1261.83001,459.643892 1264.24241,466.475251 1268.96231,464.793686 C1273.68222,463.11212 1271.26982,456.280761 1276.09461,454.599196 C1280.81452,452.91763 1283.22692,459.74899 1287.94682,458.067424 C1292.66673,456.385859 1290.25433,449.554499 1295.07912,447.872934 C1299.90391,446.191369 1302.21142,453.022728 1306.93133,451.341163" id="Shape-Copy-7" stroke="#0086E6" stroke-width="1.7145" transform="translate(1282.020717, 456.333310) rotate(93.000000) translate(-1282.020717, -456.333310) "></path>
                <path d="M1323.88098,50.5755991 C1328.60089,48.8940338 1331.01328,55.7253931 1335.73319,54.0438277 C1340.45309,52.3622624 1338.0407,45.530903 1342.86549,43.8493376 C1347.58539,42.1677722 1349.99779,48.9991316 1354.7177,47.3175662 C1359.4376,45.6360008 1357.02521,38.8046415 1361.85,37.1230761 C1366.67479,35.4415107 1368.9823,42.2728701 1373.7022,40.5913047" id="Shape-Copy-29" stroke="#0086E6" stroke-width="1.7145" transform="translate(1348.791593, 45.583452) rotate(44.000000) translate(-1348.791593, -45.583452) "></path>
                <path d="M1123.4407,170.645238 C1128.1606,168.963672 1130.573,175.795032 1135.2929,174.113466 C1140.01281,172.431901 1137.60041,165.600542 1142.4252,163.918976 C1147.14511,162.237411 1149.5575,169.06877 1154.27741,167.387205 C1158.99731,165.705639 1156.58492,158.87428 1161.40971,157.192715 C1166.2345,155.511149 1168.54201,162.342509 1173.26192,160.660943" id="Shape-Copy-8" stroke="#0086E6" stroke-width="1.7145" transform="translate(1148.351306, 165.653091) rotate(51.000000) translate(-1148.351306, -165.653091) "></path>
                <path d="M601.061376,402.000288 C599.068528,397.375983 605.676395,394.538341 603.683546,389.914036 C601.690697,385.289732 595.08283,388.127373 593.089981,383.503068 C591.097132,378.878764 597.704999,376.041122 595.712151,371.416817 C593.719302,366.792512 587.111435,369.630154 585.118586,365.005849 C583.125737,360.381544 589.733604,357.543903 587.740755,352.919598" id="Shape" stroke="#0086E6" stroke-width="1.7145"></path>
                <path d="M672.000295,140.11084 C670.007446,135.486536 676.615314,132.648894 674.622465,128.024589 C672.629616,123.400284 666.021749,126.237926 664.0289,121.613621 C662.036051,116.989316 668.643918,114.151675 666.651069,109.52737 C664.658221,104.903065 658.050353,107.740707 656.057505,103.116402 C654.064656,98.4920971 660.672523,95.6544556 658.679674,91.0301508" id="Shape-Copy-16" stroke="#0086E6" stroke-width="1.7145" transform="translate(665.339985, 115.570496) rotate(19.000000) translate(-665.339985, -115.570496) "></path>
                <path d="M489.519784,243.932031 C487.526935,239.307726 494.134802,236.470085 492.141954,231.84578 C490.149105,227.221475 483.541237,230.059116 481.548389,225.434812 C479.55554,220.810507 486.163407,217.972865 484.170558,213.34856 C482.177709,208.724256 475.569842,211.561897 473.576993,206.937592 C471.584144,202.313288 478.192012,199.475646 476.199163,194.851341" id="Shape-Copy" stroke="#0086E6" stroke-width="1.7145" transform="translate(482.859473, 219.391686) rotate(49.000000) translate(-482.859473, -219.391686) "></path>
                <path d="M387.765863,50.9320309 C385.773014,46.3077261 392.380881,43.4700845 390.388033,38.8457797 C388.395184,34.2214749 381.787316,37.0591165 379.794468,32.4348117 C377.801619,27.8105069 384.409486,24.9728653 382.416637,20.3485605 C380.423788,15.7242557 373.815921,18.5618973 371.823072,13.9375925 C369.830223,9.31328767 376.438091,6.47564608 374.445242,1.85134128" id="Shape-Copy-24" stroke="#0086E6" stroke-width="1.7145" transform="translate(381.105552, 26.391686) rotate(-15.000000) translate(-381.105552, -26.391686) "></path>
                <path d="M263.913127,347.591995 C261.920278,342.96769 268.528146,340.130048 266.535297,335.505744 C264.542448,330.881439 257.934581,333.71908 255.941732,329.094776 C253.948883,324.470471 260.55675,321.632829 258.563901,317.008524 C256.571053,312.38422 249.963185,315.221861 247.970336,310.597556 C245.977488,305.973252 252.585355,303.13561 250.592506,298.511305" id="Shape-Copy-4" stroke="#0086E6" stroke-width="1.7145" transform="translate(257.252817, 323.051650) rotate(-74.000000) translate(-257.252817, -323.051650) "></path>
                <path d="M45.9131272,80.5919947 C43.9202784,75.9676899 50.5281456,73.1300483 48.5352968,68.5057435 C46.5424479,63.8814387 39.9345807,66.7190803 37.9417319,62.0947755 C35.948883,57.4704707 42.5567502,54.6328291 40.5639014,50.0085243 C38.5710526,45.3842195 31.9631853,48.2218611 29.9703365,43.5975563 C27.9774876,38.9732515 34.5853549,36.1356099 32.592506,31.5113051" id="Shape-Copy-26" stroke="#0086E6" stroke-width="1.7145" transform="translate(39.252817, 56.051650) rotate(-74.000000) translate(-39.252817, -56.051650) "></path>
                <path d="M206.170073,140.409707 C204.177224,135.785402 210.785091,132.94776 208.792242,128.323455 C206.799393,123.699151 200.191526,126.536792 198.198677,121.912487 C196.205828,117.288182 202.813696,114.450541 200.820847,109.826236 C198.827998,105.201931 192.220131,108.039573 190.227282,103.415268 C188.234433,98.7909633 194.8423,95.9533217 192.849451,91.3290169" id="Shape-Copy-5" stroke="#0086E6" stroke-width="1.7145" transform="translate(199.509762, 115.869362) rotate(63.000000) translate(-199.509762, -115.869362) "></path>
                <path d="M67.3324742,454.067998 C65.3396253,449.443693 71.9474926,446.606052 69.9546437,441.981747 C67.9617949,437.357442 61.3539277,440.195084 59.3610788,435.570779 C57.36823,430.946474 63.9760972,428.108832 61.9832483,423.484528 C59.9903995,418.860223 53.3825323,421.697864 51.3896834,417.07356 C49.3968346,412.449255 56.0047018,409.611613 54.011853,404.987308" id="Shape-Copy-9" stroke="#0086E6" stroke-width="1.7145" transform="translate(60.672164, 429.527653) rotate(157.000000) translate(-60.672164, -429.527653) "></path>
                <path d="M445.926889,432.989135 C441.521645,430.466787 445.192682,424.266015 440.787437,421.743667 C436.382192,419.221319 432.816042,425.422091 428.515684,422.899743 C424.110439,420.377395 427.781476,414.176623 423.376231,411.654275 C418.970987,409.131927 415.404836,415.332699 411.104478,412.810351 C406.699233,410.288003 410.370271,404.08723 405.965026,401.564882" id="Shape" stroke="#0086E6" stroke-width="1.7145"></path>
                <g id="cross" transform="translate(553.323567, 441.231156)" stroke="#0086E6" stroke-width="3.4291">
                    <path d="M11.9570931,0.315293509 L11.9570931,23.121524" id="Shape"></path>
                    <path d="M23.3897522,11.6658598 L0.524433907,11.6658598" id="Shape"></path>
                </g>
                <g id="cross" transform="translate(1243.457906, 361.883595)" stroke="#0086E6" stroke-width="3.4291">
                    <path d="M11.9570931,0.315293509 L11.9570931,23.121524" id="Shape"></path>
                    <path d="M23.3897522,11.6658598 L0.524433907,11.6658598" id="Shape"></path>
                </g>
                <g id="cross" transform="translate(715.469667, 278.819095)" stroke="#0086E6" stroke-width="3.4291">
                    <path d="M16.8867718,0.105097836 L0.734207469,16.2901646" id="Shape"></path>
                    <path d="M16.8867718,16.2901646 L0.734207469,0.105097836" id="Shape"></path>
                </g>
                <g id="cross" transform="translate(1075.942129, 241.280787) rotate(-315.000000) translate(-1075.942129, -241.280787) translate(1063.942129, 229.280787)" stroke="#0086E6" stroke-width="4">
                    <path d="M23.4404878,0.398127575 L0.0497999563,23.8358826" id="Shape"></path>
                    <path d="M23.4404878,23.8358826 L0.0497999563,0.398127575" id="Shape"></path>
                </g>
                <g id="cross" transform="translate(961.729057, 452.396985)" stroke="#0086E6" stroke-width="2.4817">
                    <path d="M8.81048963,0.945880528 L8.81048963,17.4462409" id="Shape"></path>
                    <path d="M17.0965454,9.24860961 L0.524433907,9.24860961" id="Shape"></path>
                </g>
                <g id="cross" transform="translate(267.000000, 117.000000)" stroke="#0086E6" stroke-width="4">
                    <path d="M9.12071814,0.945880528 L9.12071814,17.4462409" id="Shape"></path>
                    <path d="M17.0965454,9.13567839 L0.524433907,9.13567839" id="Shape"></path>
                </g>
                <g id="cross-copy" transform="translate(804.000000, 77.000000)" stroke="#0086E6" stroke-width="4">
                    <path d="M9.12071814,0.945880528 L9.12071814,17.4462409" id="Shape"></path>
                    <path d="M17.0965454,9.13567839 L0.524433907,9.13567839" id="Shape"></path>
                </g>
                <g id="cross" transform="translate(833.025590, 383.371859)" stroke="#0086E6" stroke-width="2.3201">
                    <path d="M20.2940745,0.302928091 L0.75163239,19.8846939" id="Shape"></path>
                    <path d="M20.2940745,19.8846939 L0.75163239,0.302928091" id="Shape"></path>
                </g>
                <g id="cross" transform="translate(156.000000, 339.000000)" stroke="#0086E6" stroke-width="2.3201">
                    <path d="M20.2940745,0.302928091 L0.75163239,19.8846939" id="Shape"></path>
                    <path d="M20.2940745,19.8846939 L0.75163239,0.302928091" id="Shape"></path>
                </g>
                <g id="cross-copy-2" transform="translate(146.000000, 33.000000)" stroke="#0086E6" stroke-width="2.3201">
                    <path d="M20.2940745,0.302928091 L0.75163239,19.8846939" id="Shape"></path>
                    <path d="M20.2940745,19.8846939 L0.75163239,0.302928091" id="Shape"></path>
                </g>
                <g id="cross-copy-3" transform="translate(951.000000, 53.000000)" stroke="#0086E6" stroke-width="2.3201">
                    <path d="M20.2940745,0.302928091 L0.75163239,19.8846939" id="Shape"></path>
                    <path d="M20.2940745,19.8846939 L0.75163239,0.302928091" id="Shape"></path>
                </g>
                <g id="cross" transform="translate(410.432316, 272.728643)" stroke="#0086E6" stroke-width="2.3201">
                    <path d="M11.7473195,0.945880528 L0.839094251,11.8760555" id="Shape"></path>
                    <path d="M11.7473195,11.8760555 L0.839094251,0.945880528" id="Shape"></path>
                </g>
                <g id="cross" transform="translate(447.928602, 149.904523)" stroke="#0086E6" stroke-width="2.3201">
                    <path d="M10.9082253,0 L0,10.930175" id="Shape"></path>
                    <path d="M10.9082253,10.930175 L0,0" id="Shape"></path>
                </g>
                <g id="cross" transform="translate(1218.122578, 448.336683)" stroke="#0086E6" stroke-width="2.3201">
                    <path d="M10.9082253,-1.13686838e-13 L0,10.930175" id="Shape"></path>
                    <path d="M10.9082253,10.930175 L0,-1.13686838e-13" id="Shape"></path>
                </g>
                <g id="cross" transform="translate(246.259390, 174.266332)" stroke="#0086E6" stroke-width="2.3201">
                    <path d="M10.9082253,0 L0,10.930175" id="Shape"></path>
                    <path d="M10.9082253,10.930175 L0,0" id="Shape"></path>
                </g>
                <g id="cross" transform="translate(533.055305, 228.065327)" stroke="#0086E6" stroke-width="2.3201">
                    <path d="M11.3277724,2.84217094e-14 L0.419547125,10.930175" id="Shape"></path>
                    <path d="M11.3277724,10.930175 L0.419547125,2.84217094e-14" id="Shape"></path>
                </g>
                <g id="cross" transform="translate(213.830170, 421.944724)" stroke="#0086E6" stroke-width="2.3201">
                    <path d="M11.3277724,-5.68434189e-14 L0.419547125,10.930175" id="Shape"></path>
                    <path d="M11.3277724,10.930175 L0.419547125,-5.68434189e-14" id="Shape"></path>
                </g>
                <g id="cross" transform="translate(1223.189644, 148.889447)" stroke="#0086E6" stroke-width="2.3201">
                    <path d="M11.3277724,0 L0.419547125,10.930175" id="Shape"></path>
                    <path d="M11.3277724,10.930175 L0.419547125,0" id="Shape"></path>
                </g>
                <g id="cross" transform="translate(1422.832030, 108.286432)" stroke="#0086E6" stroke-width="2.3201">
                    <path d="M11.3277724,0 L0.419547125,10.930175" id="Shape"></path>
                    <path d="M11.3277724,10.930175 L0.419547125,0" id="Shape"></path>
                </g>
                <g id="pop" transform="translate(466.170038, 455.442211)" fill="#0086E6">
                    <path d="M10.6984517,11.6658598 C11.013112,11.1403707 11.4326592,10.7199793 11.9570931,10.4046858 L5.97854654,4.41410913 C5.66388619,4.09881562 5.0345655,4.09881562 4.71990516,4.41410913 C4.40524482,4.72940264 4.40524482,5.35998966 4.71990516,5.67528317 L10.6984517,11.6658598 L10.6984517,11.6658598 Z" id="Shape"></path>
                    <path d="M19.6138281,11.6658598 L25.5923746,5.67528317 C25.907035,5.35998966 25.907035,4.72940264 25.5923746,4.41410913 C25.2777143,4.09881562 24.6483936,4.09881562 24.3337333,4.41410913 L18.3551867,10.4046858 C18.7747339,10.7199793 19.194281,11.1403707 19.6138281,11.6658598 L19.6138281,11.6658598 Z" id="Shape"></path>
                    <path d="M9.64958388,14.8187949 C9.64958388,14.5035014 9.64958388,14.1882079 9.75447066,13.8729144 L1.36352816,13.8729144 C0.839094251,13.8729144 0.419547125,14.2933058 0.419547125,14.8187949 C0.419547125,15.3442841 0.839094251,15.7646755 1.36352816,15.7646755 L9.75447066,15.7646755 C9.64958388,15.449382 9.64958388,15.1340884 9.64958388,14.8187949 L9.64958388,14.8187949 Z" id="Shape"></path>
                    <path d="M15.1036965,9.35370744 C15.4183569,9.35370744 15.7330172,9.35370744 16.0476775,9.45880528 L16.0476775,1.05097836 C16.0476775,0.525489182 15.6281304,0.105097836 15.1036965,0.105097836 C14.5792626,0.105097836 14.1597155,0.525489182 14.1597155,1.05097836 L14.1597155,9.45880528 C14.4743758,9.35370744 14.7890362,9.35370744 15.1036965,9.35370744 L15.1036965,9.35370744 Z" id="Shape"></path>
                    <path d="M28.9487516,13.8729144 L20.5578091,13.8729144 C20.5578091,14.1882079 20.6626959,14.5035014 20.6626959,14.8187949 C20.6626959,15.1340884 20.6626959,15.449382 20.5578091,15.7646755 L28.9487516,15.7646755 C29.4731856,15.7646755 29.8927327,15.3442841 29.8927327,14.8187949 C29.8927327,14.2933058 29.3682988,13.8729144 28.9487516,13.8729144 L28.9487516,13.8729144 Z" id="Shape"></path>
                    <path d="M19.6138281,17.97173 C19.2991678,18.4972192 18.8796206,18.9176106 18.3551867,19.2329041 L24.3337333,25.2234807 C24.5435068,25.4336764 24.7532804,25.5387743 24.963054,25.5387743 C25.1728275,25.5387743 25.3826011,25.4336764 25.5923746,25.2234807 C25.907035,24.9081872 25.907035,24.2776002 25.5923746,23.9623067 L19.6138281,17.97173 L19.6138281,17.97173 Z" id="Shape"></path>
                    <path d="M10.6984517,17.97173 L4.71990516,23.9623067 C4.40524482,24.2776002 4.40524482,24.9081872 4.71990516,25.2234807 C4.92967872,25.4336764 5.13945229,25.5387743 5.34922585,25.5387743 C5.55899941,25.5387743 5.76877297,25.4336764 5.97854654,25.2234807 L11.9570931,19.2329041 C11.4326592,18.9176106 11.013112,18.4972192 10.6984517,17.97173 L10.6984517,17.97173 Z" id="Shape"></path>
                    <path d="M15.1036965,20.2838824 C14.7890362,20.2838824 14.4743758,20.2838824 14.1597155,20.1787846 L14.1597155,28.5866115 C14.1597155,29.1121007 14.5792626,29.532492 15.1036965,29.532492 C15.6281304,29.532492 16.0476775,29.1121007 16.0476775,28.5866115 L16.0476775,20.1787846 C15.7330172,20.2838824 15.4183569,20.2838824 15.1036965,20.2838824 L15.1036965,20.2838824 Z" id="Shape"></path>
                </g>
                <g id="pop" transform="translate(1156.304378, 375.079575)" fill="#0086E6">
                    <path d="M10.6984517,11.6658598 C11.013112,11.1403707 11.4326592,10.7199793 11.9570931,10.4046858 L5.97854654,4.41410913 C5.66388619,4.09881562 5.0345655,4.09881562 4.71990516,4.41410913 C4.40524482,4.72940264 4.40524482,5.35998966 4.71990516,5.67528317 L10.6984517,11.6658598 L10.6984517,11.6658598 Z" id="Shape"></path>
                    <path d="M19.6138281,11.6658598 L25.5923746,5.67528317 C25.907035,5.35998966 25.907035,4.72940264 25.5923746,4.41410913 C25.2777143,4.09881562 24.6483936,4.09881562 24.3337333,4.41410913 L18.3551867,10.4046858 C18.7747339,10.7199793 19.194281,11.1403707 19.6138281,11.6658598 L19.6138281,11.6658598 Z" id="Shape"></path>
                    <path d="M9.64958388,14.8187949 C9.64958388,14.5035014 9.64958388,14.1882079 9.75447066,13.8729144 L1.36352816,13.8729144 C0.839094251,13.8729144 0.419547125,14.2933058 0.419547125,14.8187949 C0.419547125,15.3442841 0.839094251,15.7646755 1.36352816,15.7646755 L9.75447066,15.7646755 C9.64958388,15.449382 9.64958388,15.1340884 9.64958388,14.8187949 L9.64958388,14.8187949 Z" id="Shape"></path>
                    <path d="M15.1036965,9.35370744 C15.4183569,9.35370744 15.7330172,9.35370744 16.0476775,9.45880528 L16.0476775,1.05097836 C16.0476775,0.525489182 15.6281304,0.105097836 15.1036965,0.105097836 C14.5792626,0.105097836 14.1597155,0.525489182 14.1597155,1.05097836 L14.1597155,9.45880528 C14.4743758,9.35370744 14.7890362,9.35370744 15.1036965,9.35370744 L15.1036965,9.35370744 Z" id="Shape"></path>
                    <path d="M28.9487516,13.8729144 L20.5578091,13.8729144 C20.5578091,14.1882079 20.6626959,14.5035014 20.6626959,14.8187949 C20.6626959,15.1340884 20.6626959,15.449382 20.5578091,15.7646755 L28.9487516,15.7646755 C29.4731856,15.7646755 29.8927327,15.3442841 29.8927327,14.8187949 C29.8927327,14.2933058 29.3682988,13.8729144 28.9487516,13.8729144 L28.9487516,13.8729144 Z" id="Shape"></path>
                    <path d="M19.6138281,17.97173 C19.2991678,18.4972192 18.8796206,18.9176106 18.3551867,19.2329041 L24.3337333,25.2234807 C24.5435068,25.4336764 24.7532804,25.5387743 24.963054,25.5387743 C25.1728275,25.5387743 25.3826011,25.4336764 25.5923746,25.2234807 C25.907035,24.9081872 25.907035,24.2776002 25.5923746,23.9623067 L19.6138281,17.97173 L19.6138281,17.97173 Z" id="Shape"></path>
                    <path d="M10.6984517,17.97173 L4.71990516,23.9623067 C4.40524482,24.2776002 4.40524482,24.9081872 4.71990516,25.2234807 C4.92967872,25.4336764 5.13945229,25.5387743 5.34922585,25.5387743 C5.55899941,25.5387743 5.76877297,25.4336764 5.97854654,25.2234807 L11.9570931,19.2329041 C11.4326592,18.9176106 11.013112,18.4972192 10.6984517,17.97173 L10.6984517,17.97173 Z" id="Shape"></path>
                    <path d="M15.1036965,20.2838824 C14.7890362,20.2838824 14.4743758,20.2838824 14.1597155,20.1787846 L14.1597155,28.5866115 C14.1597155,29.1121007 14.5792626,29.532492 15.1036965,29.532492 C15.6281304,29.532492 16.0476775,29.1121007 16.0476775,28.5866115 L16.0476775,20.1787846 C15.7330172,20.2838824 15.4183569,20.2838824 15.1036965,20.2838824 L15.1036965,20.2838824 Z" id="Shape"></path>
                </g>
                <g id="pop" transform="translate(737.000000, 410.000000)" fill="#0086E6">
                    <path d="M10.4886781,12.191349 C10.8033385,11.6658598 11.2228856,11.2454685 11.7473195,10.930175 L5.76877297,4.93959831 C5.45411263,4.6243048 4.82479194,4.6243048 4.5101316,4.93959831 C4.19547125,5.25489182 4.19547125,5.88547884 4.5101316,6.20077235 L10.4886781,12.191349 L10.4886781,12.191349 Z" id="Shape"></path>
                    <path d="M19.4040545,12.191349 L25.3826011,6.20077235 C25.6972614,5.88547884 25.6972614,5.25489182 25.3826011,4.93959831 C25.0679407,4.6243048 24.4386201,4.6243048 24.1239597,4.93959831 L18.1454132,10.930175 C18.5649603,11.3505663 18.9845074,11.7709577 19.4040545,12.191349 L19.4040545,12.191349 Z" id="Shape"></path>
                    <path d="M9.43981032,15.449382 C9.43981032,15.1340884 9.43981032,14.8187949 9.5446971,14.5035014 L1.15375459,14.5035014 C0.629320688,14.5035014 0.209773563,14.9238928 0.209773563,15.449382 C0.209773563,15.9748711 0.629320688,16.3952625 1.15375459,16.3952625 L9.5446971,16.3952625 C9.43981032,16.079969 9.43981032,15.7646755 9.43981032,15.449382 L9.43981032,15.449382 Z" id="Shape"></path>
                    <path d="M14.8939229,9.87919663 C15.2085833,9.87919663 15.5232436,9.87919663 15.837904,9.98429446 L15.837904,1.57646755 C15.837904,1.05097836 15.4183569,0.630587019 14.8939229,0.630587019 C14.369489,0.630587019 13.9499419,1.05097836 13.9499419,1.57646755 L13.9499419,9.98429446 C14.2646023,9.98429446 14.5792626,9.87919663 14.8939229,9.87919663 L14.8939229,9.87919663 Z" id="Shape"></path>
                    <path d="M28.7389781,14.5035014 L20.3480356,14.5035014 C20.3480356,14.8187949 20.4529224,15.1340884 20.4529224,15.449382 C20.4529224,15.7646755 20.4529224,16.079969 20.3480356,16.3952625 L28.7389781,16.3952625 C29.263412,16.3952625 29.6829591,15.9748711 29.6829591,15.449382 C29.5780723,14.9238928 29.1585252,14.5035014 28.7389781,14.5035014 L28.7389781,14.5035014 Z" id="Shape"></path>
                    <path d="M19.4040545,18.6023171 C19.0893942,19.1278062 18.6698471,19.5481976 18.1454132,19.8634911 L24.1239597,25.8540678 C24.3337333,26.0642634 24.5435068,26.1693613 24.7532804,26.1693613 C24.963054,26.1693613 25.1728275,26.0642634 25.3826011,25.8540678 C25.6972614,25.5387743 25.6972614,24.9081872 25.3826011,24.5928937 L19.4040545,18.6023171 L19.4040545,18.6023171 Z" id="Shape"></path>
                    <path d="M10.4886781,18.6023171 L4.5101316,24.5928937 C4.19547125,24.9081872 4.19547125,25.5387743 4.5101316,25.8540678 C4.71990516,26.0642634 4.92967872,26.1693613 5.13945229,26.1693613 C5.34922585,26.1693613 5.55899941,26.0642634 5.76877297,25.8540678 L11.7473195,19.8634911 C11.2228856,19.5481976 10.8033385,19.1278062 10.4886781,18.6023171 L10.4886781,18.6023171 Z" id="Shape"></path>
                    <path d="M14.8939229,20.9144695 C14.5792626,20.9144695 14.2646023,20.9144695 13.9499419,20.8093716 L13.9499419,29.2171985 C13.9499419,29.7426877 14.369489,30.1630791 14.8939229,30.1630791 C15.4183569,30.1630791 15.837904,29.7426877 15.837904,29.2171985 L15.837904,20.8093716 C15.5232436,20.9144695 15.2085833,20.9144695 14.8939229,20.9144695 L14.8939229,20.9144695 Z" id="Shape"></path>
                </g>
                <g id="pop-copy-2" transform="translate(755.000000, 14.000000)" fill="#0086E6">
                    <path d="M10.4886781,12.191349 C10.8033385,11.6658598 11.2228856,11.2454685 11.7473195,10.930175 L5.76877297,4.93959831 C5.45411263,4.6243048 4.82479194,4.6243048 4.5101316,4.93959831 C4.19547125,5.25489182 4.19547125,5.88547884 4.5101316,6.20077235 L10.4886781,12.191349 L10.4886781,12.191349 Z" id="Shape"></path>
                    <path d="M19.4040545,12.191349 L25.3826011,6.20077235 C25.6972614,5.88547884 25.6972614,5.25489182 25.3826011,4.93959831 C25.0679407,4.6243048 24.4386201,4.6243048 24.1239597,4.93959831 L18.1454132,10.930175 C18.5649603,11.3505663 18.9845074,11.7709577 19.4040545,12.191349 L19.4040545,12.191349 Z" id="Shape"></path>
                    <path d="M9.43981032,15.449382 C9.43981032,15.1340884 9.43981032,14.8187949 9.5446971,14.5035014 L1.15375459,14.5035014 C0.629320688,14.5035014 0.209773563,14.9238928 0.209773563,15.449382 C0.209773563,15.9748711 0.629320688,16.3952625 1.15375459,16.3952625 L9.5446971,16.3952625 C9.43981032,16.079969 9.43981032,15.7646755 9.43981032,15.449382 L9.43981032,15.449382 Z" id="Shape"></path>
                    <path d="M14.8939229,9.87919663 C15.2085833,9.87919663 15.5232436,9.87919663 15.837904,9.98429446 L15.837904,1.57646755 C15.837904,1.05097836 15.4183569,0.630587019 14.8939229,0.630587019 C14.369489,0.630587019 13.9499419,1.05097836 13.9499419,1.57646755 L13.9499419,9.98429446 C14.2646023,9.98429446 14.5792626,9.87919663 14.8939229,9.87919663 L14.8939229,9.87919663 Z" id="Shape"></path>
                    <path d="M28.7389781,14.5035014 L20.3480356,14.5035014 C20.3480356,14.8187949 20.4529224,15.1340884 20.4529224,15.449382 C20.4529224,15.7646755 20.4529224,16.079969 20.3480356,16.3952625 L28.7389781,16.3952625 C29.263412,16.3952625 29.6829591,15.9748711 29.6829591,15.449382 C29.5780723,14.9238928 29.1585252,14.5035014 28.7389781,14.5035014 L28.7389781,14.5035014 Z" id="Shape"></path>
                    <path d="M19.4040545,18.6023171 C19.0893942,19.1278062 18.6698471,19.5481976 18.1454132,19.8634911 L24.1239597,25.8540678 C24.3337333,26.0642634 24.5435068,26.1693613 24.7532804,26.1693613 C24.963054,26.1693613 25.1728275,26.0642634 25.3826011,25.8540678 C25.6972614,25.5387743 25.6972614,24.9081872 25.3826011,24.5928937 L19.4040545,18.6023171 L19.4040545,18.6023171 Z" id="Shape"></path>
                    <path d="M10.4886781,18.6023171 L4.5101316,24.5928937 C4.19547125,24.9081872 4.19547125,25.5387743 4.5101316,25.8540678 C4.71990516,26.0642634 4.92967872,26.1693613 5.13945229,26.1693613 C5.34922585,26.1693613 5.55899941,26.0642634 5.76877297,25.8540678 L11.7473195,19.8634911 C11.2228856,19.5481976 10.8033385,19.1278062 10.4886781,18.6023171 L10.4886781,18.6023171 Z" id="Shape"></path>
                    <path d="M14.8939229,20.9144695 C14.5792626,20.9144695 14.2646023,20.9144695 13.9499419,20.8093716 L13.9499419,29.2171985 C13.9499419,29.7426877 14.369489,30.1630791 14.8939229,30.1630791 C15.4183569,30.1630791 15.837904,29.7426877 15.837904,29.2171985 L15.837904,20.8093716 C15.5232436,20.9144695 15.2085833,20.9144695 14.8939229,20.9144695 L14.8939229,20.9144695 Z" id="Shape"></path>
                </g>
                <g id="pop" transform="translate(622.235660, 313.331658)" fill="#0086E6">
                    <path d="M6.29320688,7.46194639 C6.50298044,7.14665288 6.71275401,6.93645721 7.02741435,6.72626153 L3.46126378,3.15293509 C3.25149022,2.94273942 2.93682988,2.94273942 2.72705631,3.15293509 C2.51728275,3.36313077 2.51728275,3.67842428 2.72705631,3.88861995 L6.29320688,7.46194639 L6.29320688,7.46194639 Z" id="Shape"></path>
                    <path d="M11.6424327,7.46194639 L15.2085833,3.88861995 C15.4183569,3.67842428 15.4183569,3.36313077 15.2085833,3.15293509 C14.9988097,2.94273942 14.6841494,2.94273942 14.4743758,3.15293509 L10.9082253,6.72626153 C11.1179988,6.93645721 11.4326592,7.14665288 11.6424327,7.46194639 L11.6424327,7.46194639 Z" id="Shape"></path>
                    <path d="M5.66388619,9.35370744 C5.66388619,9.14351177 5.66388619,9.03841393 5.76877297,8.82821826 L0.734207469,8.82821826 C0.419547125,8.82821826 0.209773563,9.03841393 0.209773563,9.35370744 C0.209773563,9.66900095 0.419547125,9.87919663 0.734207469,9.87919663 L5.76877297,9.87919663 C5.66388619,9.77409879 5.66388619,9.56390312 5.66388619,9.35370744 L5.66388619,9.35370744 Z" id="Shape"></path>
                    <path d="M8.91537641,6.09567451 C9.12514998,6.09567451 9.23003676,6.09567451 9.43981032,6.20077235 L9.43981032,1.1560762 C9.43981032,0.840782692 9.23003676,0.630587019 8.91537641,0.630587019 C8.60071607,0.630587019 8.39094251,0.840782692 8.39094251,1.1560762 L8.39094251,6.20077235 C8.60071607,6.09567451 8.70560285,6.09567451 8.91537641,6.09567451 L8.91537641,6.09567451 Z" id="Shape"></path>
                    <path d="M17.2014321,8.82821826 L12.1668666,8.82821826 C12.1668666,9.03841393 12.2717534,9.14351177 12.2717534,9.35370744 C12.2717534,9.56390312 12.2717534,9.66900095 12.1668666,9.87919663 L17.2014321,9.87919663 C17.5160925,9.87919663 17.725866,9.66900095 17.725866,9.35370744 C17.725866,9.14351177 17.5160925,8.82821826 17.2014321,8.82821826 L17.2014321,8.82821826 Z" id="Shape"></path>
                    <path d="M11.6424327,11.3505663 C11.4326592,11.6658598 11.2228856,11.8760555 10.9082253,12.0862512 L14.4743758,15.6595776 C14.5792626,15.7646755 14.6841494,15.8697733 14.8939229,15.8697733 C15.1036965,15.8697733 15.2085833,15.7646755 15.3134701,15.6595776 C15.5232436,15.449382 15.5232436,15.1340884 15.3134701,14.9238928 L11.6424327,11.3505663 L11.6424327,11.3505663 Z" id="Shape"></path>
                    <path d="M6.29320688,11.3505663 L2.72705631,14.9238928 C2.51728275,15.1340884 2.51728275,15.449382 2.72705631,15.6595776 C2.8319431,15.7646755 2.93682988,15.8697733 3.14660344,15.8697733 C3.356377,15.8697733 3.46126378,15.7646755 3.56615057,15.6595776 L7.13230113,12.0862512 C6.71275401,11.8760555 6.50298044,11.6658598 6.29320688,11.3505663 L6.29320688,11.3505663 Z" id="Shape"></path>
                    <path d="M8.91537641,12.7168382 C8.70560285,12.7168382 8.60071607,12.7168382 8.39094251,12.6117404 L8.39094251,17.6564365 C8.39094251,17.97173 8.60071607,18.1819257 8.91537641,18.1819257 C9.23003676,18.1819257 9.43981032,17.97173 9.43981032,17.6564365 L9.43981032,12.6117404 C9.33492354,12.7168382 9.12514998,12.7168382 8.91537641,12.7168382 L8.91537641,12.7168382 Z" id="Shape"></path>
                </g>
                <g id="pop" transform="translate(6.080479, 251.412060)" fill="#0086E6">
                    <path d="M6.29320688,7.46194639 C6.50298044,7.14665288 6.71275401,6.93645721 7.02741435,6.72626153 L3.46126378,3.15293509 C3.25149022,2.94273942 2.93682988,2.94273942 2.72705631,3.15293509 C2.51728275,3.36313077 2.51728275,3.67842428 2.72705631,3.88861995 L6.29320688,7.46194639 L6.29320688,7.46194639 Z" id="Shape"></path>
                    <path d="M11.6424327,7.46194639 L15.2085833,3.88861995 C15.4183569,3.67842428 15.4183569,3.36313077 15.2085833,3.15293509 C14.9988097,2.94273942 14.6841494,2.94273942 14.4743758,3.15293509 L10.9082253,6.72626153 C11.1179988,6.93645721 11.4326592,7.14665288 11.6424327,7.46194639 L11.6424327,7.46194639 Z" id="Shape"></path>
                    <path d="M5.66388619,9.35370744 C5.66388619,9.14351177 5.66388619,9.03841393 5.76877297,8.82821826 L0.734207469,8.82821826 C0.419547125,8.82821826 0.209773563,9.03841393 0.209773563,9.35370744 C0.209773563,9.66900095 0.419547125,9.87919663 0.734207469,9.87919663 L5.76877297,9.87919663 C5.66388619,9.77409879 5.66388619,9.56390312 5.66388619,9.35370744 L5.66388619,9.35370744 Z" id="Shape"></path>
                    <path d="M8.91537641,6.09567451 C9.12514998,6.09567451 9.23003676,6.09567451 9.43981032,6.20077235 L9.43981032,1.1560762 C9.43981032,0.840782692 9.23003676,0.630587019 8.91537641,0.630587019 C8.60071607,0.630587019 8.39094251,0.840782692 8.39094251,1.1560762 L8.39094251,6.20077235 C8.60071607,6.09567451 8.70560285,6.09567451 8.91537641,6.09567451 L8.91537641,6.09567451 Z" id="Shape"></path>
                    <path d="M17.2014321,8.82821826 L12.1668666,8.82821826 C12.1668666,9.03841393 12.2717534,9.14351177 12.2717534,9.35370744 C12.2717534,9.56390312 12.2717534,9.66900095 12.1668666,9.87919663 L17.2014321,9.87919663 C17.5160925,9.87919663 17.725866,9.66900095 17.725866,9.35370744 C17.725866,9.14351177 17.5160925,8.82821826 17.2014321,8.82821826 L17.2014321,8.82821826 Z" id="Shape"></path>
                    <path d="M11.6424327,11.3505663 C11.4326592,11.6658598 11.2228856,11.8760555 10.9082253,12.0862512 L14.4743758,15.6595776 C14.5792626,15.7646755 14.6841494,15.8697733 14.8939229,15.8697733 C15.1036965,15.8697733 15.2085833,15.7646755 15.3134701,15.6595776 C15.5232436,15.449382 15.5232436,15.1340884 15.3134701,14.9238928 L11.6424327,11.3505663 L11.6424327,11.3505663 Z" id="Shape"></path>
                    <path d="M6.29320688,11.3505663 L2.72705631,14.9238928 C2.51728275,15.1340884 2.51728275,15.449382 2.72705631,15.6595776 C2.8319431,15.7646755 2.93682988,15.8697733 3.14660344,15.8697733 C3.356377,15.8697733 3.46126378,15.7646755 3.56615057,15.6595776 L7.13230113,12.0862512 C6.71275401,11.8760555 6.50298044,11.6658598 6.29320688,11.3505663 L6.29320688,11.3505663 Z" id="Shape"></path>
                    <path d="M8.91537641,12.7168382 C8.70560285,12.7168382 8.60071607,12.7168382 8.39094251,12.6117404 L8.39094251,17.6564365 C8.39094251,17.97173 8.60071607,18.1819257 8.91537641,18.1819257 C9.23003676,18.1819257 9.43981032,17.97173 9.43981032,17.6564365 L9.43981032,12.6117404 C9.33492354,12.7168382 9.12514998,12.7168382 8.91537641,12.7168382 L8.91537641,12.7168382 Z" id="Shape"></path>
                </g>
                <g id="pop" transform="translate(517.854108, 122.497487)" fill="#0086E6">
                    <path d="M8.0413199,9.53470927 C8.3093639,9.13183423 8.5774079,8.86325087 8.97947389,8.59466751 L4.42272595,4.0287504 C4.15468195,3.76016704 3.75261595,3.76016704 3.48457196,4.0287504 C3.21652796,4.29733376 3.21652796,4.7002088 3.48457196,4.96879216 L8.0413199,9.53470927 L8.0413199,9.53470927 Z" id="Shape"></path>
                    <path d="M14.8764418,9.53470927 L19.4331898,4.96879216 C19.7012338,4.7002088 19.7012338,4.29733376 19.4331898,4.0287504 C19.1651458,3.76016704 18.7630798,3.76016704 18.4950358,4.0287504 L13.9382878,8.59466751 C14.2063318,8.86325087 14.6083978,9.13183423 14.8764418,9.53470927 L14.8764418,9.53470927 Z" id="Shape"></path>
                    <path d="M7.23718791,11.9519595 C7.23718791,11.6833762 7.23718791,11.5490845 7.37120991,11.2805011 L0.938153989,11.2805011 C0.536087993,11.2805011 0.268043997,11.5490845 0.268043997,11.9519595 C0.268043997,12.3548346 0.536087993,12.6234179 0.938153989,12.6234179 L7.37120991,12.6234179 C7.23718791,12.4891262 7.23718791,12.2205429 7.23718791,11.9519595 L7.23718791,11.9519595 Z" id="cross"></path>
                    <path d="M11.3918699,7.78891743 C11.6599139,7.78891743 11.7939359,7.78891743 12.0619799,7.92320911 L12.0619799,1.47720848 C12.0619799,1.07433344 11.7939359,0.805750079 11.3918699,0.805750079 C10.9898039,0.805750079 10.7217599,1.07433344 10.7217599,1.47720848 L10.7217599,7.92320911 C10.9898039,7.78891743 11.1238259,7.78891743 11.3918699,7.78891743 L11.3918699,7.78891743 Z" id="Shape"></path>
                    <path d="M21.9796077,11.2805011 L15.5465518,11.2805011 C15.5465518,11.5490845 15.6805738,11.6833762 15.6805738,11.9519595 C15.6805738,12.2205429 15.6805738,12.3548346 15.5465518,12.6234179 L21.9796077,12.6234179 C22.3816737,12.6234179 22.6497177,12.3548346 22.6497177,11.9519595 C22.6497177,11.6833762 22.3816737,11.2805011 21.9796077,11.2805011 L21.9796077,11.2805011 Z" id="Shape"></path>
                    <path d="M14.8764418,14.5035014 C14.6083978,14.9063765 14.3403538,15.1749598 13.9382878,15.4435432 L18.4950358,20.0094603 C18.6290578,20.143752 18.7630798,20.2780437 19.0311238,20.2780437 C19.2991678,20.2780437 19.4331898,20.143752 19.5672118,20.0094603 C19.8352558,19.7408769 19.8352558,19.3380019 19.5672118,19.0694185 L14.8764418,14.5035014 L14.8764418,14.5035014 Z" id="Shape"></path>
                    <path d="M8.0413199,14.5035014 L3.48457196,19.0694185 C3.21652796,19.3380019 3.21652796,19.7408769 3.48457196,20.0094603 C3.61859396,20.143752 3.75261595,20.2780437 4.02065995,20.2780437 C4.28870395,20.2780437 4.42272595,20.143752 4.55674794,20.0094603 L9.11349589,15.4435432 C8.5774079,15.1749598 8.3093639,14.9063765 8.0413199,14.5035014 L8.0413199,14.5035014 Z" id="Shape"></path>
                    <path d="M11.3918699,16.2492933 C11.1238259,16.2492933 10.9898039,16.2492933 10.7217599,16.1150016 L10.7217599,22.5610022 C10.7217599,22.9638773 10.9898039,23.2324606 11.3918699,23.2324606 C11.7939359,23.2324606 12.0619799,22.9638773 12.0619799,22.5610022 L12.0619799,16.1150016 C11.9279579,16.2492933 11.6599139,16.2492933 11.3918699,16.2492933 L11.3918699,16.2492933 Z" id="Shape"></path>
                </g>
                <g id="pop" transform="translate(322.265374, 291.000000)" fill="#0088E3">
                    <path d="M8.39094251,8.72312043 C8.60071607,8.40782692 8.91537641,8.09253341 9.33492354,7.7772399 L5.0345655,3.4682286 C4.82479194,3.25803293 4.40524482,3.25803293 4.09058447,3.4682286 C3.88081091,3.67842428 3.88081091,4.09881562 4.09058447,4.41410913 L8.39094251,8.72312043 L8.39094251,8.72312043 Z" id="Shape"></path>
                    <path d="M14.8939229,8.72312043 L19.194281,4.41410913 C19.4040545,4.20391346 19.4040545,3.78352211 19.194281,3.4682286 C18.9845074,3.25803293 18.5649603,3.25803293 18.2503,3.4682286 L13.9499419,7.7772399 C14.369489,7.98743557 14.6841494,8.30272908 14.8939229,8.72312043 L14.8939229,8.72312043 Z" id="Shape"></path>
                    <path d="M7.65673504,11.0352728 C7.65673504,10.8250772 7.65673504,10.6148815 7.76162182,10.4046858 L1.57330172,10.4046858 C1.25864138,10.4046858 0.943981032,10.7199793 0.943981032,11.0352728 C0.943981032,11.3505663 1.25864138,11.6658598 1.57330172,11.6658598 L7.76162182,11.6658598 C7.65673504,11.4556642 7.65673504,11.2454685 7.65673504,11.0352728 L7.65673504,11.0352728 Z" id="Shape"></path>
                    <path d="M11.6424327,7.04155504 C11.8522063,7.04155504 12.0619799,7.04155504 12.2717534,7.14665288 L12.2717534,0.945880528 C12.2717534,0.630587019 11.9570931,0.315293509 11.6424327,0.315293509 C11.3277724,0.315293509 11.013112,0.630587019 11.013112,0.945880528 L11.013112,7.14665288 C11.2228856,7.04155504 11.4326592,7.04155504 11.6424327,7.04155504 L11.6424327,7.04155504 Z" id="Shape"></path>
                    <path d="M21.7115637,10.4046858 L15.5232436,10.4046858 C15.5232436,10.6148815 15.6281304,10.8250772 15.6281304,11.0352728 C15.6281304,11.2454685 15.6281304,11.4556642 15.5232436,11.6658598 L21.7115637,11.6658598 C22.0262241,11.6658598 22.3408844,11.3505663 22.3408844,11.0352728 C22.3408844,10.7199793 22.1311109,10.4046858 21.7115637,10.4046858 L21.7115637,10.4046858 Z" id="Shape"></path>
                    <path d="M14.8939229,13.3474252 C14.6841494,13.6627187 14.369489,13.9780122 13.9499419,14.2933058 L18.2503,18.6023171 C18.3551867,18.7074149 18.5649603,18.8125127 18.6698471,18.8125127 C18.7747339,18.8125127 18.9845074,18.7074149 19.0893942,18.6023171 C19.2991678,18.3921214 19.2991678,17.97173 19.0893942,17.6564365 L14.8939229,13.3474252 L14.8939229,13.3474252 Z" id="Shape"></path>
                    <path d="M8.39094251,13.3474252 L4.09058447,17.6564365 C3.88081091,17.8666322 3.88081091,18.2870235 4.09058447,18.6023171 C4.19547125,18.7074149 4.40524482,18.8125127 4.5101316,18.8125127 C4.61501838,18.8125127 4.82479194,18.7074149 4.92967872,18.6023171 L9.23003676,14.2933058 C8.91537641,14.0831101 8.60071607,13.7678166 8.39094251,13.3474252 L8.39094251,13.3474252 Z" id="Shape"></path>
                    <path d="M11.6424327,15.1340884 C11.4326592,15.1340884 11.2228856,15.1340884 11.013112,15.0289906 L11.013112,21.229763 C11.013112,21.5450565 11.3277724,21.86035 11.6424327,21.86035 C11.9570931,21.86035 12.2717534,21.5450565 12.2717534,21.229763 L12.2717534,15.0289906 C12.0619799,15.0289906 11.8522063,15.1340884 11.6424327,15.1340884 L11.6424327,15.1340884 Z" id="Shape"></path>
                </g>
                <g id="pop" transform="translate(113.502270, 470.668342)" fill="#0086E6">
                    <path d="M8.39094251,8.72312043 C8.60071607,8.40782692 8.91537641,8.09253341 9.33492354,7.7772399 L5.0345655,3.4682286 C4.82479194,3.25803293 4.40524482,3.25803293 4.09058447,3.4682286 C3.88081091,3.67842428 3.88081091,4.09881562 4.09058447,4.41410913 L8.39094251,8.72312043 L8.39094251,8.72312043 Z" id="Shape"></path>
                    <path d="M14.8939229,8.72312043 L19.194281,4.41410913 C19.4040545,4.20391346 19.4040545,3.78352211 19.194281,3.4682286 C18.9845074,3.25803293 18.5649603,3.25803293 18.2503,3.4682286 L13.9499419,7.7772399 C14.369489,7.98743557 14.6841494,8.30272908 14.8939229,8.72312043 L14.8939229,8.72312043 Z" id="Shape"></path>
                    <path d="M7.65673504,11.0352728 C7.65673504,10.8250772 7.65673504,10.6148815 7.76162182,10.4046858 L1.57330172,10.4046858 C1.25864138,10.4046858 0.943981032,10.7199793 0.943981032,11.0352728 C0.943981032,11.3505663 1.25864138,11.6658598 1.57330172,11.6658598 L7.76162182,11.6658598 C7.65673504,11.4556642 7.65673504,11.2454685 7.65673504,11.0352728 L7.65673504,11.0352728 Z" id="Shape"></path>
                    <path d="M11.6424327,7.04155504 C11.8522063,7.04155504 12.0619799,7.04155504 12.2717534,7.14665288 L12.2717534,0.945880528 C12.2717534,0.630587019 11.9570931,0.315293509 11.6424327,0.315293509 C11.3277724,0.315293509 11.013112,0.630587019 11.013112,0.945880528 L11.013112,7.14665288 C11.2228856,7.04155504 11.4326592,7.04155504 11.6424327,7.04155504 L11.6424327,7.04155504 Z" id="Shape"></path>
                    <path d="M21.7115637,10.4046858 L15.5232436,10.4046858 C15.5232436,10.6148815 15.6281304,10.8250772 15.6281304,11.0352728 C15.6281304,11.2454685 15.6281304,11.4556642 15.5232436,11.6658598 L21.7115637,11.6658598 C22.0262241,11.6658598 22.3408844,11.3505663 22.3408844,11.0352728 C22.3408844,10.7199793 22.1311109,10.4046858 21.7115637,10.4046858 L21.7115637,10.4046858 Z" id="Shape"></path>
                    <path d="M14.8939229,13.3474252 C14.6841494,13.6627187 14.369489,13.9780122 13.9499419,14.2933058 L18.2503,18.6023171 C18.3551867,18.7074149 18.5649603,18.8125127 18.6698471,18.8125127 C18.7747339,18.8125127 18.9845074,18.7074149 19.0893942,18.6023171 C19.2991678,18.3921214 19.2991678,17.97173 19.0893942,17.6564365 L14.8939229,13.3474252 L14.8939229,13.3474252 Z" id="Shape"></path>
                    <path d="M8.39094251,13.3474252 L4.09058447,17.6564365 C3.88081091,17.8666322 3.88081091,18.2870235 4.09058447,18.6023171 C4.19547125,18.7074149 4.40524482,18.8125127 4.5101316,18.8125127 C4.61501838,18.8125127 4.82479194,18.7074149 4.92967872,18.6023171 L9.23003676,14.2933058 C8.91537641,14.0831101 8.60071607,13.7678166 8.39094251,13.3474252 L8.39094251,13.3474252 Z" id="Shape"></path>
                    <path d="M11.6424327,15.1340884 C11.4326592,15.1340884 11.2228856,15.1340884 11.013112,15.0289906 L11.013112,21.229763 C11.013112,21.5450565 11.3277724,21.86035 11.6424327,21.86035 C11.9570931,21.86035 12.2717534,21.5450565 12.2717534,21.229763 L12.2717534,15.0289906 C12.0619799,15.0289906 11.8522063,15.1340884 11.6424327,15.1340884 L11.6424327,15.1340884 Z" id="Shape"></path>
                </g>
                <g id="pop" transform="translate(983.010733, 313.331658)" fill="#0086E6">
                    <path d="M11.013112,12.4015447 C11.3277724,11.8760555 11.8522063,11.4556642 12.2717534,11.1403707 L6.1883201,5.04469615 C5.87365975,4.72940264 5.24433907,4.72940264 4.92967872,5.04469615 C4.61501838,5.35998966 4.61501838,5.99057668 4.92967872,6.30587019 L11.013112,12.4015447 L11.013112,12.4015447 Z" id="Shape"></path>
                    <path d="M20.2431488,12.4015447 L26.3265821,6.30587019 C26.6412425,5.99057668 26.6412425,5.35998966 26.3265821,5.04469615 C26.0119218,4.72940264 25.3826011,4.72940264 25.0679407,5.04469615 L18.9845074,11.1403707 C19.4040545,11.4556642 19.8236017,11.8760555 20.2431488,12.4015447 L20.2431488,12.4015447 Z" id="Shape"></path>
                    <path d="M9.96424423,15.6595776 C9.96424423,15.3442841 9.96424423,15.0289906 10.069131,14.7136971 L1.46841494,14.7136971 C0.943981032,14.7136971 0.524433907,15.1340884 0.524433907,15.6595776 C0.524433907,16.1850668 0.943981032,16.6054582 1.46841494,16.6054582 L10.069131,16.6054582 C9.96424423,16.2901646 9.96424423,15.9748711 9.96424423,15.6595776 L9.96424423,15.6595776 Z" id="Shape"></path>
                    <path d="M15.6281304,9.98429446 C15.9427908,9.98429446 16.2574511,9.98429446 16.5721115,10.0893923 L16.5721115,1.47136971 C16.5721115,0.945880528 16.1525643,0.525489182 15.6281304,0.525489182 C15.1036965,0.525489182 14.6841494,0.945880528 14.6841494,1.47136971 L14.6841494,10.0893923 C14.9988097,9.98429446 15.3134701,9.98429446 15.6281304,9.98429446 L15.6281304,9.98429446 Z" id="Shape"></path>
                    <path d="M29.7878459,14.7136971 L21.1871298,14.7136971 C21.1871298,15.0289906 21.2920166,15.3442841 21.2920166,15.6595776 C21.2920166,15.9748711 21.2920166,16.2901646 21.1871298,16.6054582 L29.7878459,16.6054582 C30.3122798,16.6054582 30.7318269,16.1850668 30.7318269,15.6595776 C30.7318269,15.1340884 30.3122798,14.7136971 29.7878459,14.7136971 L29.7878459,14.7136971 Z" id="Shape"></path>
                    <path d="M20.2431488,18.9176106 C19.9284885,19.4430997 19.4040545,19.8634911 18.9845074,20.1787846 L25.0679407,26.2744591 C25.2777143,26.4846548 25.4874879,26.5897526 25.6972614,26.5897526 C25.907035,26.5897526 26.2216953,26.4846548 26.3265821,26.2744591 C26.6412425,25.9591656 26.6412425,25.3285786 26.3265821,25.0132851 L20.2431488,18.9176106 L20.2431488,18.9176106 Z" id="Shape"></path>
                    <path d="M11.013112,18.9176106 L4.92967872,25.0132851 C4.61501838,25.3285786 4.61501838,25.9591656 4.92967872,26.2744591 C5.13945229,26.4846548 5.34922585,26.5897526 5.55899941,26.5897526 C5.76877297,26.5897526 6.08343332,26.4846548 6.1883201,26.2744591 L12.2717534,20.1787846 C11.8522063,19.8634911 11.4326592,19.4430997 11.013112,18.9176106 L11.013112,18.9176106 Z" id="Shape"></path>
                    <path d="M15.6281304,21.3348608 C15.3134701,21.3348608 14.9988097,21.3348608 14.6841494,21.229763 L14.6841494,29.8477856 C14.6841494,30.3732747 15.1036965,30.7936661 15.6281304,30.7936661 C16.1525643,30.7936661 16.5721115,30.3732747 16.5721115,29.8477856 L16.5721115,21.229763 C16.2574511,21.229763 15.9427908,21.3348608 15.6281304,21.3348608 L15.6281304,21.3348608 Z" id="Shape"></path>
                </g>
                <g id="pop" transform="translate(1280.954192, 256.487437)" fill="#0086E6">
                    <path d="M7.10523357,8.00099658 C7.30824025,7.6619713 7.6465847,7.39075108 7.91726027,7.18733591 L3.99246458,3.25464268 C3.78945791,3.05122751 3.38344456,3.05122751 3.18043789,3.25464268 C2.97743121,3.45805784 2.97743121,3.86488818 3.18043789,4.06830335 L7.10523357,8.00099658 L7.10523357,8.00099658 Z" id="Shape"></path>
                    <path d="M13.060096,8.00099658 L16.9848917,4.06830335 C17.1878984,3.86488818 17.1878984,3.45805784 16.9848917,3.25464268 C16.781885,3.05122751 16.3758717,3.05122751 16.172865,3.25464268 L12.2480693,7.18733591 C12.5187449,7.39075108 12.7894204,7.6619713 13.060096,8.00099658 L13.060096,8.00099658 Z" id="Shape"></path>
                    <path d="M6.42854466,10.1029533 C6.42854466,9.89953814 6.42854466,9.69612298 6.49621355,9.49270781 L0.947364477,9.49270781 C0.609020021,9.49270781 0.338344456,9.76392803 0.338344456,10.1029533 C0.338344456,10.4419786 0.609020021,10.7131988 0.947364477,10.7131988 L6.49621355,10.7131988 C6.42854466,10.5097836 6.42854466,10.3063685 6.42854466,10.1029533 L6.42854466,10.1029533 Z" id="Shape"></path>
                    <path d="M10.0826648,6.4414803 C10.2856715,6.4414803 10.4886781,6.4414803 10.6916848,6.50928535 L10.6916848,0.949270781 C10.6916848,0.610245502 10.4210092,0.339025279 10.0826648,0.339025279 C9.74432033,0.339025279 9.47364477,0.610245502 9.47364477,0.949270781 L9.47364477,6.50928535 C9.67665144,6.4414803 9.87965811,6.4414803 10.0826648,6.4414803 L10.0826648,6.4414803 Z" id="Shape"></path>
                    <path d="M19.2179651,9.49270781 L13.669116,9.49270781 C13.669116,9.69612298 13.7367849,9.89953814 13.7367849,10.1029533 C13.7367849,10.3063685 13.7367849,10.5097836 13.669116,10.7131988 L19.2179651,10.7131988 C19.5563096,10.7131988 19.8269851,10.4419786 19.8269851,10.1029533 C19.8269851,9.76392803 19.5563096,9.49270781 19.2179651,9.49270781 L19.2179651,9.49270781 Z" id="Shape"></path>
                    <path d="M13.060096,12.20491 C12.8570893,12.5439353 12.5187449,12.8151555 12.2480693,13.0185707 L16.172865,16.9512639 C16.3082028,17.0868741 16.4435406,17.1546791 16.5788783,17.1546791 C16.7142161,17.1546791 16.9172228,17.0868741 16.9848917,16.9512639 C17.1878984,16.7478488 17.1878984,16.3410184 16.9848917,16.1376033 L13.060096,12.20491 L13.060096,12.20491 Z" id="Shape"></path>
                    <path d="M7.10523357,12.20491 L3.18043789,16.1376033 C2.97743121,16.3410184 2.97743121,16.7478488 3.18043789,16.9512639 C3.31577567,17.0868741 3.45111345,17.1546791 3.58645123,17.1546791 C3.72178902,17.1546791 3.92479569,17.0868741 3.99246458,16.9512639 L7.91726027,13.0185707 C7.6465847,12.8151555 7.37590914,12.5439353 7.10523357,12.20491 L7.10523357,12.20491 Z" id="Shape"></path>
                    <path d="M10.0826648,13.7644263 C9.87965811,13.7644263 9.67665144,13.7644263 9.47364477,13.6966213 L9.47364477,19.2566358 C9.47364477,19.5956611 9.74432033,19.8668813 10.0826648,19.8668813 C10.4210092,19.8668813 10.6916848,19.5956611 10.6916848,19.2566358 L10.6916848,13.6966213 C10.4886781,13.6966213 10.2856715,13.7644263 10.0826648,13.7644263 L10.0826648,13.7644263 Z" id="Shape"></path>
                </g>
                <g id="pop" transform="translate(1025.574084, 95.090452)" fill="#0086E6">
                    <path d="M11.013112,12.4015447 C11.3277724,11.8760555 11.8522063,11.4556642 12.2717534,11.1403707 L6.1883201,5.04469615 C5.87365975,4.72940264 5.24433907,4.72940264 4.92967872,5.04469615 C4.61501838,5.35998966 4.61501838,5.99057668 4.92967872,6.30587019 L11.013112,12.4015447 L11.013112,12.4015447 Z" id="Shape"></path>
                    <path d="M20.2431488,12.4015447 L26.3265821,6.30587019 C26.6412425,5.99057668 26.6412425,5.35998966 26.3265821,5.04469615 C26.0119218,4.72940264 25.3826011,4.72940264 25.0679407,5.04469615 L18.9845074,11.1403707 C19.4040545,11.4556642 19.8236017,11.8760555 20.2431488,12.4015447 L20.2431488,12.4015447 Z" id="Shape"></path>
                    <path d="M9.96424423,15.6595776 C9.96424423,15.3442841 9.96424423,15.0289906 10.069131,14.7136971 L1.46841494,14.7136971 C0.943981032,14.7136971 0.524433907,15.1340884 0.524433907,15.6595776 C0.524433907,16.1850668 0.943981032,16.6054582 1.46841494,16.6054582 L10.069131,16.6054582 C9.96424423,16.2901646 9.96424423,15.9748711 9.96424423,15.6595776 L9.96424423,15.6595776 Z" id="Shape"></path>
                    <path d="M15.6281304,9.98429446 C15.9427908,9.98429446 16.2574511,9.98429446 16.5721115,10.0893923 L16.5721115,1.47136971 C16.5721115,0.945880528 16.1525643,0.525489182 15.6281304,0.525489182 C15.1036965,0.525489182 14.6841494,0.945880528 14.6841494,1.47136971 L14.6841494,10.0893923 C14.9988097,9.98429446 15.3134701,9.98429446 15.6281304,9.98429446 L15.6281304,9.98429446 Z" id="Shape"></path>
                    <path d="M29.7878459,14.7136971 L21.1871298,14.7136971 C21.1871298,15.0289906 21.2920166,15.3442841 21.2920166,15.6595776 C21.2920166,15.9748711 21.2920166,16.2901646 21.1871298,16.6054582 L29.7878459,16.6054582 C30.3122798,16.6054582 30.7318269,16.1850668 30.7318269,15.6595776 C30.7318269,15.1340884 30.3122798,14.7136971 29.7878459,14.7136971 L29.7878459,14.7136971 Z" id="Shape"></path>
                    <path d="M20.2431488,18.9176106 C19.9284885,19.4430997 19.4040545,19.8634911 18.9845074,20.1787846 L25.0679407,26.2744591 C25.2777143,26.4846548 25.4874879,26.5897526 25.6972614,26.5897526 C25.907035,26.5897526 26.2216953,26.4846548 26.3265821,26.2744591 C26.6412425,25.9591656 26.6412425,25.3285786 26.3265821,25.0132851 L20.2431488,18.9176106 L20.2431488,18.9176106 Z" id="Shape"></path>
                    <path d="M11.013112,18.9176106 L4.92967872,25.0132851 C4.61501838,25.3285786 4.61501838,25.9591656 4.92967872,26.2744591 C5.13945229,26.4846548 5.34922585,26.5897526 5.55899941,26.5897526 C5.76877297,26.5897526 6.08343332,26.4846548 6.1883201,26.2744591 L12.2717534,20.1787846 C11.8522063,19.8634911 11.4326592,19.4430997 11.013112,18.9176106 L11.013112,18.9176106 Z" id="Shape"></path>
                    <path d="M15.6281304,21.3348608 C15.3134701,21.3348608 14.9988097,21.3348608 14.6841494,21.229763 L14.6841494,29.8477856 C14.6841494,30.3732747 15.1036965,30.7936661 15.6281304,30.7936661 C16.1525643,30.7936661 16.5721115,30.3732747 16.5721115,29.8477856 L16.5721115,21.229763 C16.2574511,21.229763 15.9427908,21.3348608 15.6281304,21.3348608 L15.6281304,21.3348608 Z" id="Shape"></path>
                </g>
                <g id="pop" transform="translate(125.000000, 253.000000)" fill="#0086E6">
                    <path d="M11.013112,12.4015447 C11.3277724,11.8760555 11.8522063,11.4556642 12.2717534,11.1403707 L6.1883201,5.04469615 C5.87365975,4.72940264 5.24433907,4.72940264 4.92967872,5.04469615 C4.61501838,5.35998966 4.61501838,5.99057668 4.92967872,6.30587019 L11.013112,12.4015447 L11.013112,12.4015447 Z" id="Shape"></path>
                    <path d="M20.2431488,12.4015447 L26.3265821,6.30587019 C26.6412425,5.99057668 26.6412425,5.35998966 26.3265821,5.04469615 C26.0119218,4.72940264 25.3826011,4.72940264 25.0679407,5.04469615 L18.9845074,11.1403707 C19.4040545,11.4556642 19.8236017,11.8760555 20.2431488,12.4015447 L20.2431488,12.4015447 Z" id="Shape"></path>
                    <path d="M9.96424423,15.6595776 C9.96424423,15.3442841 9.96424423,15.0289906 10.069131,14.7136971 L1.46841494,14.7136971 C0.943981032,14.7136971 0.524433907,15.1340884 0.524433907,15.6595776 C0.524433907,16.1850668 0.943981032,16.6054582 1.46841494,16.6054582 L10.069131,16.6054582 C9.96424423,16.2901646 9.96424423,15.9748711 9.96424423,15.6595776 L9.96424423,15.6595776 Z" id="Shape"></path>
                    <path d="M15.6281304,9.98429446 C15.9427908,9.98429446 16.2574511,9.98429446 16.5721115,10.0893923 L16.5721115,1.47136971 C16.5721115,0.945880528 16.1525643,0.525489182 15.6281304,0.525489182 C15.1036965,0.525489182 14.6841494,0.945880528 14.6841494,1.47136971 L14.6841494,10.0893923 C14.9988097,9.98429446 15.3134701,9.98429446 15.6281304,9.98429446 L15.6281304,9.98429446 Z" id="Shape"></path>
                    <path d="M29.7878459,14.7136971 L21.1871298,14.7136971 C21.1871298,15.0289906 21.2920166,15.3442841 21.2920166,15.6595776 C21.2920166,15.9748711 21.2920166,16.2901646 21.1871298,16.6054582 L29.7878459,16.6054582 C30.3122798,16.6054582 30.7318269,16.1850668 30.7318269,15.6595776 C30.7318269,15.1340884 30.3122798,14.7136971 29.7878459,14.7136971 L29.7878459,14.7136971 Z" id="Shape"></path>
                    <path d="M20.2431488,18.9176106 C19.9284885,19.4430997 19.4040545,19.8634911 18.9845074,20.1787846 L25.0679407,26.2744591 C25.2777143,26.4846548 25.4874879,26.5897526 25.6972614,26.5897526 C25.907035,26.5897526 26.2216953,26.4846548 26.3265821,26.2744591 C26.6412425,25.9591656 26.6412425,25.3285786 26.3265821,25.0132851 L20.2431488,18.9176106 L20.2431488,18.9176106 Z" id="Shape"></path>
                    <path d="M11.013112,18.9176106 L4.92967872,25.0132851 C4.61501838,25.3285786 4.61501838,25.9591656 4.92967872,26.2744591 C5.13945229,26.4846548 5.34922585,26.5897526 5.55899941,26.5897526 C5.76877297,26.5897526 6.08343332,26.4846548 6.1883201,26.2744591 L12.2717534,20.1787846 C11.8522063,19.8634911 11.4326592,19.4430997 11.013112,18.9176106 L11.013112,18.9176106 Z" id="Shape"></path>
                    <path d="M15.6281304,21.3348608 C15.3134701,21.3348608 14.9988097,21.3348608 14.6841494,21.229763 L14.6841494,29.8477856 C14.6841494,30.3732747 15.1036965,30.7936661 15.6281304,30.7936661 C16.1525643,30.7936661 16.5721115,30.3732747 16.5721115,29.8477856 L16.5721115,21.229763 C16.2574511,21.229763 15.9427908,21.3348608 15.6281304,21.3348608 L15.6281304,21.3348608 Z" id="Shape"></path>
                </g>
                <g id="pop-copy" transform="translate(451.000000, 19.000000)" fill="#0086E6">
                    <path d="M11.013112,12.4015447 C11.3277724,11.8760555 11.8522063,11.4556642 12.2717534,11.1403707 L6.1883201,5.04469615 C5.87365975,4.72940264 5.24433907,4.72940264 4.92967872,5.04469615 C4.61501838,5.35998966 4.61501838,5.99057668 4.92967872,6.30587019 L11.013112,12.4015447 L11.013112,12.4015447 Z" id="Shape"></path>
                    <path d="M20.2431488,12.4015447 L26.3265821,6.30587019 C26.6412425,5.99057668 26.6412425,5.35998966 26.3265821,5.04469615 C26.0119218,4.72940264 25.3826011,4.72940264 25.0679407,5.04469615 L18.9845074,11.1403707 C19.4040545,11.4556642 19.8236017,11.8760555 20.2431488,12.4015447 L20.2431488,12.4015447 Z" id="Shape"></path>
                    <path d="M9.96424423,15.6595776 C9.96424423,15.3442841 9.96424423,15.0289906 10.069131,14.7136971 L1.46841494,14.7136971 C0.943981032,14.7136971 0.524433907,15.1340884 0.524433907,15.6595776 C0.524433907,16.1850668 0.943981032,16.6054582 1.46841494,16.6054582 L10.069131,16.6054582 C9.96424423,16.2901646 9.96424423,15.9748711 9.96424423,15.6595776 L9.96424423,15.6595776 Z" id="Shape"></path>
                    <path d="M15.6281304,9.98429446 C15.9427908,9.98429446 16.2574511,9.98429446 16.5721115,10.0893923 L16.5721115,1.47136971 C16.5721115,0.945880528 16.1525643,0.525489182 15.6281304,0.525489182 C15.1036965,0.525489182 14.6841494,0.945880528 14.6841494,1.47136971 L14.6841494,10.0893923 C14.9988097,9.98429446 15.3134701,9.98429446 15.6281304,9.98429446 L15.6281304,9.98429446 Z" id="Shape"></path>
                    <path d="M29.7878459,14.7136971 L21.1871298,14.7136971 C21.1871298,15.0289906 21.2920166,15.3442841 21.2920166,15.6595776 C21.2920166,15.9748711 21.2920166,16.2901646 21.1871298,16.6054582 L29.7878459,16.6054582 C30.3122798,16.6054582 30.7318269,16.1850668 30.7318269,15.6595776 C30.7318269,15.1340884 30.3122798,14.7136971 29.7878459,14.7136971 L29.7878459,14.7136971 Z" id="Shape"></path>
                    <path d="M20.2431488,18.9176106 C19.9284885,19.4430997 19.4040545,19.8634911 18.9845074,20.1787846 L25.0679407,26.2744591 C25.2777143,26.4846548 25.4874879,26.5897526 25.6972614,26.5897526 C25.907035,26.5897526 26.2216953,26.4846548 26.3265821,26.2744591 C26.6412425,25.9591656 26.6412425,25.3285786 26.3265821,25.0132851 L20.2431488,18.9176106 L20.2431488,18.9176106 Z" id="Shape"></path>
                    <path d="M11.013112,18.9176106 L4.92967872,25.0132851 C4.61501838,25.3285786 4.61501838,25.9591656 4.92967872,26.2744591 C5.13945229,26.4846548 5.34922585,26.5897526 5.55899941,26.5897526 C5.76877297,26.5897526 6.08343332,26.4846548 6.1883201,26.2744591 L12.2717534,20.1787846 C11.8522063,19.8634911 11.4326592,19.4430997 11.013112,18.9176106 L11.013112,18.9176106 Z" id="Shape"></path>
                    <path d="M15.6281304,21.3348608 C15.3134701,21.3348608 14.9988097,21.3348608 14.6841494,21.229763 L14.6841494,29.8477856 C14.6841494,30.3732747 15.1036965,30.7936661 15.6281304,30.7936661 C16.1525643,30.7936661 16.5721115,30.3732747 16.5721115,29.8477856 L16.5721115,21.229763 C16.2574511,21.229763 15.9427908,21.3348608 15.6281304,21.3348608 L15.6281304,21.3348608 Z" id="Shape"></path>
                </g>
                <g id="pop" transform="translate(930.608706, 419.431514)" fill="#0086E6">
                    <path d="M6.39809366,7.7772399 C6.60786722,7.46194639 6.81764079,7.25175071 7.13230113,7.04155504 L3.56615057,3.4682286 C3.356377,3.25803293 3.04171666,3.25803293 2.8319431,3.4682286 C2.62216953,3.67842428 2.62216953,3.99371779 2.8319431,4.20391346 L6.39809366,7.7772399 L6.39809366,7.7772399 Z" id="Shape"></path>
                    <path d="M11.7473195,7.7772399 L15.3134701,4.20391346 C15.5232436,3.99371779 15.5232436,3.67842428 15.3134701,3.4682286 C15.1036965,3.25803293 14.7890362,3.25803293 14.5792626,3.4682286 L11.013112,7.04155504 C11.2228856,7.14665288 11.5375459,7.46194639 11.7473195,7.7772399 L11.7473195,7.7772399 Z" id="Shape"></path>
                    <path d="M5.76877297,9.66900095 C5.76877297,9.45880528 5.76877297,9.35370744 5.87365975,9.14351177 L0.839094251,9.14351177 C0.524433907,9.14351177 0.314660344,9.35370744 0.314660344,9.66900095 C0.314660344,9.98429446 0.524433907,10.1944901 0.839094251,10.1944901 L5.87365975,10.1944901 C5.76877297,9.98429446 5.76877297,9.87919663 5.76877297,9.66900095 L5.76877297,9.66900095 Z" id="Shape"></path>
                    <path d="M9.02026319,6.30587019 C9.23003676,6.30587019 9.33492354,6.30587019 9.5446971,6.41096802 L9.5446971,1.36627187 C9.5446971,1.05097836 9.33492354,0.840782692 9.02026319,0.840782692 C8.70560285,0.840782692 8.49582929,1.05097836 8.49582929,1.36627187 L8.49582929,6.41096802 C8.70560285,6.41096802 8.81048963,6.30587019 9.02026319,6.30587019 L9.02026319,6.30587019 Z" id="Shape"></path>
                    <path d="M17.3063189,9.14351177 L12.2717534,9.14351177 C12.2717534,9.35370744 12.3766402,9.45880528 12.3766402,9.66900095 C12.3766402,9.87919663 12.3766402,9.98429446 12.2717534,10.1944901 L17.3063189,10.1944901 C17.6209793,10.1944901 17.8307528,9.98429446 17.8307528,9.66900095 C17.8307528,9.35370744 17.6209793,9.14351177 17.3063189,9.14351177 L17.3063189,9.14351177 Z" id="Shape"></path>
                    <path d="M11.7473195,11.560762 C11.5375459,11.8760555 11.3277724,12.0862512 11.013112,12.2964469 L14.5792626,15.8697733 C14.6841494,15.9748711 14.7890362,16.079969 14.9988097,16.079969 C15.2085833,16.079969 15.3134701,15.9748711 15.4183569,15.8697733 C15.6281304,15.6595776 15.6281304,15.3442841 15.4183569,15.1340884 L11.7473195,11.560762 L11.7473195,11.560762 Z" id="Shape"></path>
                    <path d="M6.39809366,11.560762 L2.8319431,15.1340884 C2.62216953,15.3442841 2.62216953,15.6595776 2.8319431,15.8697733 C2.93682988,15.9748711 3.04171666,16.079969 3.25149022,16.079969 C3.356377,16.079969 3.56615057,15.9748711 3.67103735,15.8697733 L7.23718791,12.2964469 C6.81764079,12.0862512 6.60786722,11.8760555 6.39809366,11.560762 L6.39809366,11.560762 Z" id="Shape"></path>
                    <path d="M9.02026319,12.9270339 C8.81048963,12.9270339 8.70560285,12.9270339 8.49582929,12.821936 L8.49582929,17.8666322 C8.49582929,18.1819257 8.70560285,18.3921214 9.02026319,18.3921214 C9.33492354,18.3921214 9.5446971,18.1819257 9.5446971,17.8666322 L9.5446971,12.821936 C9.43981032,12.9270339 9.23003676,12.9270339 9.02026319,12.9270339 L9.02026319,12.9270339 Z" id="Shape"></path>
                </g>
                <g id="pop" transform="translate(812.086643, 207.133885)" fill="#0086E6">
                    <path d="M6.39809366,7.25175071 C6.60786722,6.93645721 6.81764079,6.72626153 7.13230113,6.51606586 L3.56615057,2.94273942 C3.356377,2.73254375 3.04171666,2.73254375 2.8319431,2.94273942 C2.62216953,3.15293509 2.62216953,3.4682286 2.8319431,3.67842428 L6.39809366,7.25175071 L6.39809366,7.25175071 Z" id="Shape"></path>
                    <path d="M11.7473195,7.25175071 L15.3134701,3.67842428 C15.5232436,3.4682286 15.5232436,3.15293509 15.3134701,2.94273942 C15.1036965,2.73254375 14.7890362,2.73254375 14.5792626,2.94273942 L11.013112,6.51606586 C11.2228856,6.72626153 11.5375459,7.04155504 11.7473195,7.25175071 L11.7473195,7.25175071 Z" id="Shape"></path>
                    <path d="M5.76877297,9.24860961 C5.76877297,9.03841393 5.76877297,8.9333161 5.87365975,8.72312043 L0.839094251,8.72312043 C0.524433907,8.72312043 0.314660344,8.9333161 0.314660344,9.24860961 C0.314660344,9.56390312 0.524433907,9.77409879 0.839094251,9.77409879 L5.87365975,9.77409879 C5.76877297,9.56390312 5.76877297,9.35370744 5.76877297,9.24860961 L5.76877297,9.24860961 Z" id="Shape"></path>
                    <path d="M9.02026319,5.88547884 C9.23003676,5.88547884 9.33492354,5.88547884 9.5446971,5.99057668 L9.5446971,0.945880528 C9.5446971,0.630587019 9.33492354,0.420391346 9.02026319,0.420391346 C8.70560285,0.420391346 8.49582929,0.630587019 8.49582929,0.945880528 L8.49582929,5.99057668 C8.70560285,5.99057668 8.91537641,5.88547884 9.02026319,5.88547884 L9.02026319,5.88547884 Z" id="Shape"></path>
                    <path d="M17.3063189,8.72312043 L12.2717534,8.72312043 C12.2717534,8.9333161 12.3766402,9.03841393 12.3766402,9.24860961 C12.3766402,9.45880528 12.3766402,9.56390312 12.2717534,9.77409879 L17.3063189,9.77409879 C17.6209793,9.77409879 17.8307528,9.56390312 17.8307528,9.24860961 C17.9356396,8.9333161 17.6209793,8.72312043 17.3063189,8.72312043 L17.3063189,8.72312043 Z" id="Shape"></path>
                    <path d="M11.7473195,11.1403707 C11.5375459,11.4556642 11.3277724,11.6658598 11.013112,11.8760555 L14.5792626,15.449382 C14.6841494,15.5544798 14.7890362,15.6595776 14.9988097,15.6595776 C15.2085833,15.6595776 15.3134701,15.5544798 15.4183569,15.449382 C15.6281304,15.2391863 15.6281304,14.9238928 15.4183569,14.7136971 L11.7473195,11.1403707 L11.7473195,11.1403707 Z" id="Shape"></path>
                    <path d="M6.39809366,11.1403707 L2.8319431,14.7136971 C2.62216953,14.9238928 2.62216953,15.2391863 2.8319431,15.449382 C2.93682988,15.5544798 3.04171666,15.6595776 3.25149022,15.6595776 C3.46126378,15.6595776 3.56615057,15.5544798 3.67103735,15.449382 L7.23718791,11.8760555 C6.81764079,11.6658598 6.60786722,11.4556642 6.39809366,11.1403707 L6.39809366,11.1403707 Z" id="Shape"></path>
                    <path d="M9.02026319,12.5066425 C8.81048963,12.5066425 8.70560285,12.5066425 8.49582929,12.4015447 L8.49582929,17.4462409 C8.49582929,17.7615344 8.70560285,17.97173 9.02026319,17.97173 C9.33492354,17.97173 9.5446971,17.7615344 9.5446971,17.4462409 L9.5446971,12.4015447 C9.43981032,12.5066425 9.23003676,12.5066425 9.02026319,12.5066425 L9.02026319,12.5066425 Z" id="Shape"></path>
                </g>
                <path d="M1284.60611,118.214088 C1283.26232,119.291287 1281.11224,118.483388 1280.84349,116.732939 L1279.36531,106.499547 L1277.88714,96.2661544 C1277.61838,94.5157058 1279.36531,93.1692068 1280.97787,93.8424563 L1290.51881,97.7473033 L1300.05975,101.65215 C1301.67231,102.3254 1302.07545,104.479798 1300.59727,105.556997 L1292.5345,112.020192 L1284.60611,118.214088 L1284.60611,118.214088 Z" id="Shape" stroke="#0086E6" stroke-width="1.7145" transform="translate(1289.686837, 106.183143) rotate(74.000000) translate(-1289.686837, -106.183143) "></path>
            </g>
        </g>
    </g>
</svg>